<svg width="150" height="65" viewBox="0 0 150 65" fill="none" xmlns="http://www.w3.org/2000/svg">
<path fill-rule="evenodd" clip-rule="evenodd" d="M59.2405 31.3035C58.3251 31.911 57.5748 32.7363 57.0569 33.7052H56.8713L56.5547 30.714H53.5742V47.6567H57.177V38.8032C57.1211 37.4562 57.5998 36.1417 58.509 35.1462C58.9609 34.6777 59.5068 34.3101 60.1107 34.0674C60.7147 33.8247 61.3632 33.7124 62.0136 33.7379C62.5506 33.7324 63.0862 33.7948 63.6076 33.9235L63.957 30.5612C63.3669 30.4498 62.767 30.3986 62.1665 30.4083C61.1237 30.4084 60.1048 30.7201 59.2405 31.3035Z" fill="white"/>
<path fill-rule="evenodd" clip-rule="evenodd" d="M131.156 30.2663C130.094 30.2397 129.041 30.472 128.088 30.9431C127.248 31.371 126.545 32.0252 126.057 32.8317H125.784C125.902 31.8024 125.964 30.7674 125.97 29.7314V23.6835H122.367V47.5037H125.97V39.0979C125.845 37.5102 126.227 35.9239 127.062 34.5675C127.473 34.0946 127.99 33.7248 128.57 33.4878C129.15 33.2508 129.778 33.1532 130.403 33.2029C130.865 33.1636 131.33 33.2296 131.763 33.396C132.196 33.5624 132.586 33.8248 132.903 34.1635C133.493 35.0201 133.774 36.0518 133.7 37.0892V47.5037H137.314V36.467C137.314 32.3332 135.261 30.2663 131.156 30.2663Z" fill="white"/>
<path fill-rule="evenodd" clip-rule="evenodd" d="M93.3033 39.0213C92.3467 38.4141 91.3249 37.9161 90.2573 37.5366C89.1131 37.1526 88.0147 36.6437 86.9819 36.0192C86.76 35.8718 86.5773 35.6724 86.4498 35.4384C86.3224 35.2044 86.2539 34.9429 86.2505 34.6764C86.2505 33.5848 87.2003 33.0498 89.1 33.0498C90.691 33.1193 92.2543 33.4897 93.7073 34.1415L94.8755 31.4342C93.0997 30.6276 91.1705 30.2143 89.2201 30.2224C87.5436 30.1331 85.8796 30.5557 84.449 31.4342C83.8906 31.7944 83.4358 32.2939 83.1294 32.8836C82.8231 33.4732 82.6758 34.1326 82.7022 34.7965C82.6549 35.8707 83.0223 36.9221 83.7284 37.7331C84.8698 38.7675 86.2219 39.5422 87.6916 40.0038C88.4898 40.3039 89.2699 40.6502 90.028 41.0408C90.4823 41.2642 90.8928 41.5674 91.2399 41.936C91.4984 42.2392 91.6312 42.6298 91.6111 43.0277C91.6111 44.3595 90.5193 45.0363 88.3357 45.0363C86.4007 44.9863 84.5002 44.5131 82.7677 43.6499V46.7612C84.4844 47.5178 86.3523 47.8689 88.2266 47.7873C90.0479 47.9056 91.8598 47.4431 93.4016 46.4664C94.0008 46.0454 94.4899 45.4864 94.8275 44.8365C95.1651 44.1867 95.3413 43.4652 95.3413 42.7329C95.3413 42.0006 95.1651 41.2791 94.8275 40.6293C94.4899 39.9795 94.0008 39.4204 93.4016 38.9994L93.3033 39.0213Z" fill="white"/>
<path d="M101.721 30.572H98.1183V47.5037H101.721V30.572Z" fill="white"/>
<path fill-rule="evenodd" clip-rule="evenodd" d="M72.8107 30.4523C71.7475 30.3983 70.6858 30.5831 69.7034 30.993C68.721 31.4029 67.8428 32.0276 67.1334 32.8212C65.6629 34.6763 64.9282 37.0084 65.07 39.3712C64.93 41.6943 65.715 43.9784 67.2535 45.7247C68.0717 46.5128 69.0439 47.1232 70.1092 47.5177C71.1745 47.9122 72.3098 48.0823 73.4439 48.0172C74.4762 48.0271 75.507 47.9394 76.5227 47.7552C77.4438 47.5715 78.3386 47.2745 79.1867 46.871V43.8798C78.2876 44.2853 77.3517 44.6033 76.3917 44.8296C75.4761 45.0196 74.5428 45.1111 73.6077 45.1025C72.971 45.1482 72.3318 45.0634 71.7291 44.8531C71.1264 44.6429 70.5731 44.3116 70.1031 43.8798C69.2053 42.8213 68.7309 41.4681 68.7711 40.0808H80.0601V38.094C80.1752 36.0442 79.4769 34.0317 78.1167 32.4937C77.4252 31.8001 76.5953 31.2598 75.6811 30.9081C74.7669 30.5564 73.7889 30.4011 72.8107 30.4523V30.4523ZM68.8366 37.4281C68.8775 36.2655 69.3082 35.1505 70.0594 34.2622C70.4162 33.8981 70.8454 33.6128 71.3193 33.4247C71.7932 33.2367 72.3013 33.1501 72.8107 33.1706C73.3125 33.1459 73.8136 33.2308 74.2793 33.4193C74.745 33.6078 75.1641 33.8955 75.5074 34.2622C76.2235 35.1569 76.585 36.2839 76.5227 37.4281H68.8366Z" fill="white"/>
<path fill-rule="evenodd" clip-rule="evenodd" d="M43.0159 30.4088C41.9712 30.4192 40.9311 30.5474 39.9152 30.7908C38.868 31.0238 37.8553 31.3907 36.9019 31.8825L38.0701 34.4589C38.8122 34.1035 39.5783 33.8007 40.3628 33.5528C41.1704 33.2924 42.0145 33.1634 42.863 33.1707C43.2872 33.1352 43.7142 33.1888 44.1165 33.3279C44.5189 33.467 44.8877 33.6886 45.1994 33.9785C45.7593 34.6564 46.0334 35.5256 45.9637 36.402V37.3299L43.0377 37.4282C40.9686 37.3533 38.9196 37.856 37.1202 38.8801C36.4869 39.3095 35.9745 39.8945 35.6323 40.5788C35.2901 41.2632 35.1295 42.024 35.166 42.7883C35.1216 43.4846 35.2218 44.1826 35.4605 44.8383C35.6991 45.494 36.0709 46.0932 36.5525 46.5982C37.6273 47.5446 39.0311 48.0308 40.4611 47.9519C41.5509 47.99 42.6367 47.8004 43.6491 47.3951C44.6107 46.8924 45.4437 46.1752 46.0838 45.2991H46.2148L46.7388 47.6571H49.501V36.2383C49.5704 35.4363 49.4615 34.6289 49.1821 33.874C48.9028 33.1191 48.4599 32.4353 47.8852 31.8716C46.4897 30.8166 44.7618 30.2975 43.0159 30.4088ZM45.9418 41.0416C45.9721 41.6106 45.8806 42.1796 45.6736 42.7104C45.4665 43.2413 45.1485 43.7219 44.7409 44.1201C43.8754 44.8729 42.7534 45.2638 41.6075 45.2118C40.8815 45.2674 40.161 45.0493 39.5877 44.6004C39.3471 44.3678 39.1615 44.0844 39.0444 43.7708C38.9273 43.4573 38.8816 43.1217 38.9108 42.7883C38.8743 42.3407 38.9559 41.8914 39.1475 41.4853C39.3391 41.0791 39.6339 40.7304 40.0025 40.4739C41.1404 39.8698 42.416 39.5725 43.7037 39.6115L45.8872 39.5242L45.9418 41.0416Z" fill="white"/>
<path fill-rule="evenodd" clip-rule="evenodd" d="M26.1592 30.408C25.1008 30.3867 24.0526 30.6188 23.1022 31.0849C22.2571 31.5042 21.549 32.1555 21.0606 32.9625H20.8313C20.9391 31.9364 20.9865 30.9048 20.9732 29.8731V23.8253H17.4249V47.6564H20.9732V39.2505C20.8421 37.659 21.2248 36.0673 22.065 34.7092C22.4758 34.2362 22.9925 33.8671 23.5731 33.6318C24.1537 33.3966 24.7817 33.3019 25.4058 33.3555C25.8668 33.313 26.3313 33.3775 26.7631 33.5442C27.1949 33.7108 27.5823 33.9751 27.8951 34.3162C28.4914 35.1698 28.7731 36.2038 28.6921 37.2419V47.6564H32.3059V36.6087C32.3168 32.4822 30.2643 30.408 26.1592 30.408Z" fill="white"/>
<path fill-rule="evenodd" clip-rule="evenodd" d="M12.1519 36.9366C11.0308 36.1502 9.81708 35.5049 8.53814 35.0153C7.48779 34.6165 6.47256 34.1309 5.50299 33.5633C5.02007 33.2737 4.60938 32.878 4.30203 32.4062C4.04289 31.9474 3.9145 31.4263 3.93082 30.8997C3.91711 30.5135 3.99273 30.1293 4.1518 29.7771C4.31087 29.425 4.54909 29.1142 4.84792 28.8692C5.62384 28.293 6.58062 28.0142 7.54462 28.0832C9.38552 28.1498 11.1956 28.5763 12.8725 29.3386L14.0298 26.4129C12.0205 25.4973 9.84006 25.0174 7.63196 25.0047C5.71986 24.9024 3.83193 25.4699 2.29315 26.6094C1.64282 27.1312 1.12349 27.7978 0.776591 28.556C0.429695 29.3141 0.264844 30.1429 0.295193 30.9761C0.263765 32.3559 0.706977 33.7047 1.55074 34.7969C2.74129 36.0991 4.2444 37.076 5.91786 37.6353C7.32233 38.1182 8.64425 38.8141 9.83735 39.6985C10.1461 39.9705 10.3913 40.3071 10.5554 40.6844C10.7195 41.0617 10.7987 41.4705 10.7872 41.8818C10.7872 42.3055 10.6885 42.7234 10.499 43.1024C10.3095 43.4813 10.0344 43.811 9.69542 44.0652C8.74509 44.6846 7.61656 44.9725 6.48559 44.8839C5.40287 44.8749 4.32518 44.7356 3.27575 44.4691C2.14875 44.2209 1.05094 43.855 0.000411987 43.3774V46.838C1.95615 47.6931 4.07958 48.0961 6.21264 48.017C8.36359 48.139 10.4912 47.5185 12.2393 46.2594C12.9492 45.7084 13.5176 44.9962 13.8973 44.1818C14.277 43.3673 14.4572 42.4741 14.4228 41.5762C14.4469 40.6699 14.264 39.7701 13.8879 38.9453C13.4834 38.1431 12.8871 37.4531 12.1519 36.9366Z" fill="white"/>
<path fill-rule="evenodd" clip-rule="evenodd" d="M114.517 44.3926H111.591C110.909 44.4375 110.225 44.3409 109.582 44.1088C109.42 44.0285 109.283 43.9039 109.189 43.7493C109.094 43.5948 109.045 43.4167 109.047 43.2355C109.075 42.8753 109.198 42.5289 109.403 42.2316C109.608 41.9343 109.889 41.6968 110.216 41.5434C112.46 41.9348 114.769 41.4418 116.657 40.1679C117.258 39.6694 117.734 39.038 118.049 38.3237C118.363 37.6095 118.507 36.8318 118.469 36.0523C118.472 35.4887 118.384 34.9283 118.207 34.393C118.056 33.9259 117.835 33.4844 117.552 33.083L118.884 32.7664V30.583H114.583C114.188 30.4854 113.787 30.4196 113.382 30.3865C112.886 30.3138 112.387 30.2773 111.886 30.2774C110.1 30.1595 108.333 30.6993 106.918 31.7948C106.333 32.3344 105.875 32.9972 105.576 33.7353C105.278 34.4734 105.147 35.2684 105.193 36.0632C105.172 37.1203 105.452 38.1616 106.001 39.0653C106.527 39.8831 107.289 40.5224 108.185 40.8993C107.587 41.2394 107.052 41.6787 106.602 42.1984C106.239 42.6573 106.05 43.2294 106.067 43.814C106.073 44.3259 106.233 44.8241 106.525 45.2441C106.819 45.6797 107.232 46.0209 107.715 46.2266C106.664 46.4294 105.698 46.9428 104.942 47.7004C104.286 48.4167 103.933 49.3601 103.96 50.3313C103.934 51.0218 104.088 51.7072 104.408 52.3198C104.728 52.9325 105.202 53.4511 105.783 53.8246C107.388 54.7382 109.224 55.1632 111.067 55.0473C113.455 55.1942 115.835 54.6524 117.924 53.4862C118.677 53.0219 119.295 52.3661 119.713 51.5857C120.131 50.8052 120.335 49.9279 120.304 49.0431C120.341 48.397 120.23 47.7509 119.978 47.1547C119.726 46.5585 119.341 46.0281 118.852 45.6044C117.595 44.7013 116.06 44.272 114.517 44.3926V44.3926ZM109.451 33.476C109.76 33.1675 110.131 32.9289 110.54 32.7764C110.949 32.6238 111.385 32.5608 111.821 32.5917C112.252 32.5558 112.686 32.6176 113.091 32.7726C113.495 32.9276 113.86 33.1717 114.157 33.4869C114.723 34.2093 115.002 35.1148 114.943 36.0305C114.943 38.2138 113.906 39.371 111.821 39.371C111.389 39.401 110.956 39.3397 110.549 39.1911C110.143 39.0425 109.773 38.8099 109.462 38.5085C108.882 37.8312 108.592 36.9528 108.654 36.0632C108.571 35.1333 108.84 34.206 109.408 33.465L109.451 33.476ZM115.478 51.7286C114.116 52.3707 112.614 52.6598 111.111 52.5692C110.086 52.6259 109.064 52.4072 108.152 51.936C107.821 51.7691 107.544 51.513 107.351 51.1966C107.158 50.8802 107.057 50.5162 107.06 50.1457C107.047 49.7685 107.122 49.3935 107.279 49.0505C107.437 48.7074 107.672 48.4058 107.967 48.1698C108.68 47.6576 109.546 47.4034 110.423 47.4493H113.152C114.15 47.3712 115.152 47.5282 116.078 47.9078C116.345 48.0722 116.56 48.3071 116.701 48.5866C116.841 48.866 116.902 49.179 116.875 49.4907C116.869 49.9542 116.735 50.407 116.488 50.7997C116.242 51.1924 115.892 51.5099 115.478 51.7177V51.7286Z" fill="white"/>
<path fill-rule="evenodd" clip-rule="evenodd" d="M147.358 44.9059C146.727 44.9318 146.111 44.7083 145.644 44.2836C145.413 44.0232 145.236 43.7188 145.126 43.3886C145.015 43.0585 144.972 42.7094 145 42.3623V33.3015H149.803V30.5723H145V26.806H141.571V30.3867L139.639 31.3692V33.3015H141.397V42.4169C141.397 46.0121 143.104 47.8097 146.517 47.8097C147.169 47.8095 147.82 47.7474 148.461 47.6241C148.989 47.5446 149.506 47.4016 150 47.1984V44.491C149.146 44.7641 148.255 44.904 147.358 44.9059V44.9059Z" fill="white"/>
<path d="M113.01 10.0373C111.654 9.90602 110.286 10.1247 109.038 10.6725C107.79 11.2204 106.704 12.079 105.882 13.1664C105.061 14.2538 104.532 15.5337 104.346 16.8837C104.161 18.2338 104.324 19.6088 104.822 20.8776L98.8715 24.6548C98.5931 24.8325 98.3797 25.0956 98.2634 25.4048C98.1471 25.7139 98.134 26.0524 98.2263 26.3695C98.3185 26.6867 98.5109 26.9655 98.7749 27.1641C99.0388 27.3627 99.36 27.4705 99.6903 27.4713C99.9809 27.473 100.266 27.3895 100.509 27.2311L106.459 23.4648C107.787 24.8863 109.589 25.7718 111.525 25.9538C111.776 25.9538 112.027 25.9538 112.289 25.9538C114.277 25.9489 116.191 25.2035 117.659 23.8632C119.127 22.5229 120.042 20.684 120.227 18.7052C120.415 16.5998 119.761 14.5056 118.409 12.881C117.056 11.2565 115.115 10.234 113.01 10.0373V10.0373ZM116.362 21.6199V15.3101C116.359 15.2299 116.326 15.1537 116.269 15.097C116.212 15.0402 116.136 15.0071 116.056 15.0044H114.768C114.688 15.0071 114.611 15.0402 114.555 15.097C114.498 15.1537 114.465 15.2299 114.462 15.3101V22.9518C114.065 23.1281 113.647 23.2529 113.217 23.3229V17.679C113.217 17.5979 113.185 17.5202 113.128 17.4629C113.071 17.4055 112.993 17.3733 112.912 17.3733H111.591C111.55 17.3719 111.509 17.3787 111.47 17.3934C111.432 17.4081 111.397 17.4304 111.367 17.4589C111.338 17.4874 111.314 17.5216 111.298 17.5594C111.282 17.5973 111.274 17.6379 111.274 17.679V23.3557C110.85 23.2799 110.436 23.1554 110.04 22.9845V19.8623C110.04 19.8213 110.032 19.7806 110.016 19.7428C110 19.705 109.977 19.6708 109.947 19.6422C109.917 19.6137 109.882 19.5914 109.844 19.5767C109.806 19.562 109.765 19.5552 109.724 19.5567H108.446C108.406 19.5551 108.365 19.562 108.328 19.5768C108.29 19.5916 108.256 19.6141 108.227 19.6428C108.198 19.6715 108.176 19.7058 108.161 19.7436C108.146 19.7814 108.139 19.8218 108.141 19.8623V21.5763C107.432 20.7912 106.967 19.8173 106.801 18.7729C106.636 17.7284 106.778 16.6584 107.209 15.6929C107.64 14.7274 108.343 13.9079 109.231 13.3341C110.12 12.7604 111.155 12.457 112.213 12.4608C112.388 12.45 112.563 12.45 112.737 12.4608C113.747 12.5503 114.711 12.919 115.523 13.5257C116.335 14.1324 116.962 14.9531 117.334 15.896C117.706 16.8388 117.807 17.8665 117.628 18.864C117.449 19.8614 116.995 20.7892 116.318 21.5435L116.362 21.6199Z" fill="#FFB84E"/>
</svg>
