<svg width="150" height="65" viewBox="0 0 150 65" fill="none" xmlns="http://www.w3.org/2000/svg">
<path fill-rule="evenodd" clip-rule="evenodd" d="M59.2407 31.3035C58.3252 31.911 57.575 32.7363 57.0571 33.7052H56.8715L56.5549 30.714H53.5743V47.6567H57.1772V38.8032C57.1212 37.4562 57.6 36.1417 58.5092 35.1462C58.9611 34.6777 59.5069 34.3101 60.1109 34.0674C60.7149 33.8247 61.3633 33.7124 62.0138 33.7379C62.5508 33.7324 63.0864 33.7948 63.6078 33.9235L63.9572 30.5612C63.367 30.4498 62.7671 30.3986 62.1666 30.4083C61.1239 30.4084 60.1049 30.7201 59.2407 31.3035Z" fill="#11243E"/>
<path fill-rule="evenodd" clip-rule="evenodd" d="M59.2407 31.3035C58.3252 31.911 57.575 32.7363 57.0571 33.7052H56.8715L56.5549 30.714H53.5743V47.6567H57.1772V38.8032C57.1212 37.4562 57.6 36.1417 58.5092 35.1462C58.9611 34.6777 59.5069 34.3101 60.1109 34.0674C60.7149 33.8247 61.3633 33.7124 62.0138 33.7379C62.5508 33.7324 63.0864 33.7948 63.6078 33.9235L63.9572 30.5612C63.367 30.4498 62.7671 30.3986 62.1666 30.4083C61.1239 30.4084 60.1049 30.7201 59.2407 31.3035Z" fill="black" fill-opacity="0.2"/>
<path fill-rule="evenodd" clip-rule="evenodd" d="M131.156 30.2663C130.093 30.2397 129.04 30.472 128.088 30.9431C127.248 31.371 126.545 32.0252 126.057 32.8317H125.784C125.902 31.8024 125.964 30.7674 125.97 29.7314V23.6835H122.367V47.5037H125.97V39.0979C125.845 37.5102 126.227 35.9239 127.062 34.5675C127.473 34.0946 127.989 33.7248 128.57 33.4878C129.15 33.2508 129.778 33.1532 130.402 33.2029C130.865 33.1636 131.33 33.2296 131.763 33.396C132.196 33.5624 132.586 33.8248 132.903 34.1635C133.492 35.0201 133.773 36.0518 133.7 37.0892V47.5037H137.313V36.467C137.313 32.3332 135.261 30.2663 131.156 30.2663Z" fill="#11243E"/>
<path fill-rule="evenodd" clip-rule="evenodd" d="M131.156 30.2663C130.093 30.2397 129.04 30.472 128.088 30.9431C127.248 31.371 126.545 32.0252 126.057 32.8317H125.784C125.902 31.8024 125.964 30.7674 125.97 29.7314V23.6835H122.367V47.5037H125.97V39.0979C125.845 37.5102 126.227 35.9239 127.062 34.5675C127.473 34.0946 127.989 33.7248 128.57 33.4878C129.15 33.2508 129.778 33.1532 130.402 33.2029C130.865 33.1636 131.33 33.2296 131.763 33.396C132.196 33.5624 132.586 33.8248 132.903 34.1635C133.492 35.0201 133.773 36.0518 133.7 37.0892V47.5037H137.313V36.467C137.313 32.3332 135.261 30.2663 131.156 30.2663Z" fill="black" fill-opacity="0.2"/>
<path fill-rule="evenodd" clip-rule="evenodd" d="M93.3035 39.0213C92.3468 38.4141 91.3251 37.9161 90.2574 37.5366C89.1132 37.1526 88.0148 36.6437 86.9821 36.0192C86.7601 35.8718 86.5775 35.6724 86.45 35.4384C86.3225 35.2044 86.2541 34.9429 86.2506 34.6764C86.2506 33.5848 87.2005 33.0498 89.1001 33.0498C90.6911 33.1193 92.2545 33.4897 93.7075 34.1415L94.8757 31.4342C93.0998 30.6276 91.1707 30.2143 89.2202 30.2224C87.5438 30.1331 85.8798 30.5557 84.4492 31.4342C83.8907 31.7944 83.4359 32.2939 83.1296 32.8836C82.8232 33.4732 82.676 34.1326 82.7023 34.7965C82.6551 35.8707 83.0225 36.9221 83.7286 37.7331C84.87 38.7675 86.2221 39.5422 87.6918 40.0038C88.49 40.3039 89.2701 40.6502 90.0282 41.0408C90.4825 41.2642 90.893 41.5674 91.24 41.936C91.4986 42.2392 91.6314 42.6297 91.6112 43.0277C91.6112 44.3595 90.5195 45.0363 88.3359 45.0363C86.4009 44.9863 84.5003 44.5131 82.7678 43.6499V46.7612C84.4845 47.5178 86.3524 47.8689 88.2267 47.7873C90.0481 47.9056 91.86 47.4431 93.4018 46.4664C94.001 46.0454 94.49 45.4864 94.8276 44.8365C95.1652 44.1867 95.3415 43.4652 95.3415 42.7329C95.3415 42.0006 95.1652 41.2791 94.8276 40.6293C94.49 39.9795 94.001 39.4204 93.4018 38.9994L93.3035 39.0213Z" fill="#11243E"/>
<path fill-rule="evenodd" clip-rule="evenodd" d="M93.3035 39.0213C92.3468 38.4141 91.3251 37.9161 90.2574 37.5366C89.1132 37.1526 88.0148 36.6437 86.9821 36.0192C86.7601 35.8718 86.5775 35.6724 86.45 35.4384C86.3225 35.2044 86.2541 34.9429 86.2506 34.6764C86.2506 33.5848 87.2005 33.0498 89.1001 33.0498C90.6911 33.1193 92.2545 33.4897 93.7075 34.1415L94.8757 31.4342C93.0998 30.6276 91.1707 30.2143 89.2202 30.2224C87.5438 30.1331 85.8798 30.5557 84.4492 31.4342C83.8907 31.7944 83.4359 32.2939 83.1296 32.8836C82.8232 33.4732 82.676 34.1326 82.7023 34.7965C82.6551 35.8707 83.0225 36.9221 83.7286 37.7331C84.87 38.7675 86.2221 39.5422 87.6918 40.0038C88.49 40.3039 89.2701 40.6502 90.0282 41.0408C90.4825 41.2642 90.893 41.5674 91.24 41.936C91.4986 42.2392 91.6314 42.6297 91.6112 43.0277C91.6112 44.3595 90.5195 45.0363 88.3359 45.0363C86.4009 44.9863 84.5003 44.5131 82.7678 43.6499V46.7612C84.4845 47.5178 86.3524 47.8689 88.2267 47.7873C90.0481 47.9056 91.86 47.4431 93.4018 46.4664C94.001 46.0454 94.49 45.4864 94.8276 44.8365C95.1652 44.1867 95.3415 43.4652 95.3415 42.7329C95.3415 42.0006 95.1652 41.2791 94.8276 40.6293C94.49 39.9795 94.001 39.4204 93.4018 38.9994L93.3035 39.0213Z" fill="black" fill-opacity="0.2"/>
<path d="M101.722 30.572H98.1188V47.5037H101.722V30.572Z" fill="#11243E"/>
<path d="M101.722 30.572H98.1188V47.5037H101.722V30.572Z" fill="black" fill-opacity="0.2"/>
<path fill-rule="evenodd" clip-rule="evenodd" d="M72.8108 30.4523C71.7477 30.3983 70.6859 30.5831 69.7035 30.993C68.7211 31.4029 67.843 32.0276 67.1336 32.8212C65.6631 34.6763 64.9284 37.0084 65.0701 39.3712C64.9301 41.6943 65.7151 43.9784 67.2537 45.7247C68.0718 46.5128 69.0441 47.1232 70.1093 47.5177C71.1746 47.9122 72.3099 48.0823 73.4441 48.0172C74.4763 48.0271 75.5072 47.9394 76.5229 47.7552C77.4439 47.5715 78.3387 47.2745 79.1868 46.871V43.8798C78.2878 44.2853 77.3518 44.6033 76.3919 44.8296C75.4763 45.0196 74.5429 45.1111 73.6078 45.1025C72.9712 45.1482 72.3319 45.0634 71.7292 44.8531C71.1266 44.6428 70.5732 44.3116 70.1032 43.8798C69.2055 42.8213 68.7311 41.4681 68.7713 40.0808H80.0603V38.094C80.1754 36.0442 79.477 34.0317 78.1169 32.4937C77.4253 31.8001 76.5955 31.2598 75.6813 30.9081C74.7671 30.5564 73.789 30.4011 72.8108 30.4523V30.4523ZM68.8368 37.4281C68.8777 36.2655 69.3084 35.1505 70.0596 34.2622C70.4163 33.8981 70.8455 33.6128 71.3194 33.4247C71.7933 33.2367 72.3014 33.1501 72.8108 33.1706C73.3126 33.1459 73.8138 33.2308 74.2795 33.4193C74.7452 33.6078 75.1642 33.8955 75.5075 34.2622C76.2236 35.1569 76.5851 36.2839 76.5229 37.4281H68.8368Z" fill="#11243E"/>
<path fill-rule="evenodd" clip-rule="evenodd" d="M72.8108 30.4523C71.7477 30.3983 70.6859 30.5831 69.7035 30.993C68.7211 31.4029 67.843 32.0276 67.1336 32.8212C65.6631 34.6763 64.9284 37.0084 65.0701 39.3712C64.9301 41.6943 65.7151 43.9784 67.2537 45.7247C68.0718 46.5128 69.0441 47.1232 70.1093 47.5177C71.1746 47.9122 72.3099 48.0823 73.4441 48.0172C74.4763 48.0271 75.5072 47.9394 76.5229 47.7552C77.4439 47.5715 78.3387 47.2745 79.1868 46.871V43.8798C78.2878 44.2853 77.3518 44.6033 76.3919 44.8296C75.4763 45.0196 74.5429 45.1111 73.6078 45.1025C72.9712 45.1482 72.3319 45.0634 71.7292 44.8531C71.1266 44.6428 70.5732 44.3116 70.1032 43.8798C69.2055 42.8213 68.7311 41.4681 68.7713 40.0808H80.0603V38.094C80.1754 36.0442 79.477 34.0317 78.1169 32.4937C77.4253 31.8001 76.5955 31.2598 75.6813 30.9081C74.7671 30.5564 73.789 30.4011 72.8108 30.4523V30.4523ZM68.8368 37.4281C68.8777 36.2655 69.3084 35.1505 70.0596 34.2622C70.4163 33.8981 70.8455 33.6128 71.3194 33.4247C71.7933 33.2367 72.3014 33.1501 72.8108 33.1706C73.3126 33.1459 73.8138 33.2308 74.2795 33.4193C74.7452 33.6078 75.1642 33.8955 75.5075 34.2622C76.2236 35.1569 76.5851 36.2839 76.5229 37.4281H68.8368Z" fill="black" fill-opacity="0.2"/>
<path fill-rule="evenodd" clip-rule="evenodd" d="M43.0157 30.4088C41.9711 30.4192 40.9309 30.5474 39.915 30.7908C38.8679 31.0238 37.8551 31.3907 36.9017 31.8825L38.0699 34.4588C38.812 34.1035 39.5781 33.8007 40.3627 33.5528C41.1702 33.2924 42.0144 33.1634 42.8628 33.1707C43.2871 33.1352 43.714 33.1888 44.1164 33.3279C44.5187 33.467 44.8875 33.6886 45.1993 33.9785C45.7592 34.6564 46.0333 35.5256 45.9635 36.402V37.3299L43.0375 37.4282C40.9685 37.3533 38.9194 37.856 37.1201 38.8801C36.4867 39.3095 35.9744 39.8944 35.6321 40.5788C35.2899 41.2632 35.1293 42.024 35.1658 42.7883C35.1214 43.4846 35.2216 44.1826 35.4603 44.8383C35.6989 45.494 36.0707 46.0932 36.5523 46.5982C37.6272 47.5446 39.0309 48.0308 40.4609 47.9518C41.5508 47.99 42.6366 47.8004 43.6489 47.3951C44.6105 46.8924 45.4435 46.1752 46.0836 45.2991H46.2146L46.7387 47.6571H49.5009V36.2383C49.5702 35.4363 49.4613 34.6289 49.182 33.874C48.9026 33.1191 48.4597 32.4353 47.885 31.8716C46.4895 30.8166 44.7616 30.2975 43.0157 30.4088ZM45.9417 41.0416C45.9719 41.6106 45.8805 42.1795 45.6734 42.7104C45.4663 43.2413 45.1483 43.7219 44.7407 44.1201C43.8752 44.8729 42.7532 45.2638 41.6073 45.2118C40.8813 45.2674 40.1608 45.0493 39.5875 44.6004C39.3469 44.3678 39.1613 44.0843 39.0442 43.7708C38.9271 43.4573 38.8815 43.1217 38.9106 42.7883C38.8741 42.3407 38.9557 41.8914 39.1473 41.4853C39.3389 41.0791 39.6337 40.7304 40.0024 40.4739C41.1402 39.8698 42.4158 39.5725 43.7035 39.6115L45.8871 39.5242L45.9417 41.0416Z" fill="#11243E"/>
<path fill-rule="evenodd" clip-rule="evenodd" d="M43.0157 30.4088C41.9711 30.4192 40.9309 30.5474 39.915 30.7908C38.8679 31.0238 37.8551 31.3907 36.9017 31.8825L38.0699 34.4588C38.812 34.1035 39.5781 33.8007 40.3627 33.5528C41.1702 33.2924 42.0144 33.1634 42.8628 33.1707C43.2871 33.1352 43.714 33.1888 44.1164 33.3279C44.5187 33.467 44.8875 33.6886 45.1993 33.9785C45.7592 34.6564 46.0333 35.5256 45.9635 36.402V37.3299L43.0375 37.4282C40.9685 37.3533 38.9194 37.856 37.1201 38.8801C36.4867 39.3095 35.9744 39.8944 35.6321 40.5788C35.2899 41.2632 35.1293 42.024 35.1658 42.7883C35.1214 43.4846 35.2216 44.1826 35.4603 44.8383C35.6989 45.494 36.0707 46.0932 36.5523 46.5982C37.6272 47.5446 39.0309 48.0308 40.4609 47.9518C41.5508 47.99 42.6366 47.8004 43.6489 47.3951C44.6105 46.8924 45.4435 46.1752 46.0836 45.2991H46.2146L46.7387 47.6571H49.5009V36.2383C49.5702 35.4363 49.4613 34.6289 49.182 33.874C48.9026 33.1191 48.4597 32.4353 47.885 31.8716C46.4895 30.8166 44.7616 30.2975 43.0157 30.4088ZM45.9417 41.0416C45.9719 41.6106 45.8805 42.1795 45.6734 42.7104C45.4663 43.2413 45.1483 43.7219 44.7407 44.1201C43.8752 44.8729 42.7532 45.2638 41.6073 45.2118C40.8813 45.2674 40.1608 45.0493 39.5875 44.6004C39.3469 44.3678 39.1613 44.0843 39.0442 43.7708C38.9271 43.4573 38.8815 43.1217 38.9106 42.7883C38.8741 42.3407 38.9557 41.8914 39.1473 41.4853C39.3389 41.0791 39.6337 40.7304 40.0024 40.4739C41.1402 39.8698 42.4158 39.5725 43.7035 39.6115L45.8871 39.5242L45.9417 41.0416Z" fill="black" fill-opacity="0.2"/>
<path fill-rule="evenodd" clip-rule="evenodd" d="M26.1597 30.408C25.1013 30.3867 24.0531 30.6187 23.1027 31.0849C22.2576 31.5042 21.5495 32.1555 21.0611 32.9625H20.8318C20.9396 31.9364 20.987 30.9048 20.9737 29.8731V23.8253H17.4254V47.6564H20.9737V39.2505C20.8426 37.659 21.2253 36.0673 22.0655 34.7092C22.4762 34.2362 22.993 33.8671 23.5736 33.6318C24.1542 33.3966 24.7822 33.3019 25.4063 33.3555C25.8672 33.313 26.3317 33.3775 26.7636 33.5442C27.1954 33.7108 27.5828 33.9751 27.8956 34.3162C28.4919 35.1698 28.7736 36.2038 28.6926 37.2419V47.6564H32.3064V36.6087C32.3173 32.4822 30.2648 30.408 26.1597 30.408Z" fill="#11243E"/>
<path fill-rule="evenodd" clip-rule="evenodd" d="M26.1597 30.408C25.1013 30.3867 24.0531 30.6187 23.1027 31.0849C22.2576 31.5042 21.5495 32.1555 21.0611 32.9625H20.8318C20.9396 31.9364 20.987 30.9048 20.9737 29.8731V23.8253H17.4254V47.6564H20.9737V39.2505C20.8426 37.659 21.2253 36.0673 22.0655 34.7092C22.4762 34.2362 22.993 33.8671 23.5736 33.6318C24.1542 33.3966 24.7822 33.3019 25.4063 33.3555C25.8672 33.313 26.3317 33.3775 26.7636 33.5442C27.1954 33.7108 27.5828 33.9751 27.8956 34.3162C28.4919 35.1698 28.7736 36.2038 28.6926 37.2419V47.6564H32.3064V36.6087C32.3173 32.4822 30.2648 30.408 26.1597 30.408Z" fill="black" fill-opacity="0.2"/>
<path fill-rule="evenodd" clip-rule="evenodd" d="M12.1521 36.9366C11.031 36.1502 9.81723 35.5049 8.53828 35.0152C7.48794 34.6165 6.47271 34.1309 5.50314 33.5633C5.02022 33.2737 4.60953 32.878 4.30218 32.4062C4.04304 31.9474 3.91465 31.4263 3.93097 30.8997C3.91726 30.5135 3.99288 30.1293 4.15195 29.7771C4.31102 29.425 4.54924 29.1142 4.84807 28.8692C5.62399 28.293 6.58077 28.0142 7.54476 28.0832C9.38567 28.1498 11.1957 28.5763 12.8726 29.3386L14.0299 26.4129C12.0206 25.4973 9.84021 25.0174 7.6321 25.0047C5.72001 24.9024 3.83208 25.4699 2.2933 26.6094C1.64297 27.1312 1.12364 27.7978 0.776745 28.556C0.429849 29.3141 0.264998 30.1429 0.295347 30.9761C0.263919 32.3559 0.70713 33.7047 1.55089 34.7969C2.74145 36.0991 4.24455 37.076 5.91801 37.6352C7.32248 38.1182 8.6444 38.8141 9.8375 39.6985C10.1463 39.9705 10.3914 40.3071 10.5555 40.6844C10.7197 41.0617 10.7988 41.4705 10.7873 41.8818C10.7873 42.3055 10.6887 42.7234 10.4992 43.1023C10.3097 43.4813 10.0346 43.8109 9.69557 44.0652C8.74523 44.6846 7.61671 44.9725 6.48574 44.8839C5.40302 44.8749 4.32533 44.7356 3.2759 44.4691C2.1489 44.2209 1.05109 43.855 0.000566006 43.3774V46.838C1.9563 47.6931 4.07973 48.0961 6.21279 48.017C8.36374 48.139 10.4913 47.5185 12.2394 46.2594C12.9493 45.7084 13.5177 44.9962 13.8974 44.1818C14.2772 43.3673 14.4573 42.4741 14.423 41.5762C14.4471 40.6699 14.2641 39.7701 13.888 38.9452C13.4835 38.143 12.8872 37.4531 12.1521 36.9366Z" fill="#11243E"/>
<path fill-rule="evenodd" clip-rule="evenodd" d="M12.1521 36.9366C11.031 36.1502 9.81723 35.5049 8.53828 35.0152C7.48794 34.6165 6.47271 34.1309 5.50314 33.5633C5.02022 33.2737 4.60953 32.878 4.30218 32.4062C4.04304 31.9474 3.91465 31.4263 3.93097 30.8997C3.91726 30.5135 3.99288 30.1293 4.15195 29.7771C4.31102 29.425 4.54924 29.1142 4.84807 28.8692C5.62399 28.293 6.58077 28.0142 7.54476 28.0832C9.38567 28.1498 11.1957 28.5763 12.8726 29.3386L14.0299 26.4129C12.0206 25.4973 9.84021 25.0174 7.6321 25.0047C5.72001 24.9024 3.83208 25.4699 2.2933 26.6094C1.64297 27.1312 1.12364 27.7978 0.776745 28.556C0.429849 29.3141 0.264998 30.1429 0.295347 30.9761C0.263919 32.3559 0.70713 33.7047 1.55089 34.7969C2.74145 36.0991 4.24455 37.076 5.91801 37.6352C7.32248 38.1182 8.6444 38.8141 9.8375 39.6985C10.1463 39.9705 10.3914 40.3071 10.5555 40.6844C10.7197 41.0617 10.7988 41.4705 10.7873 41.8818C10.7873 42.3055 10.6887 42.7234 10.4992 43.1023C10.3097 43.4813 10.0346 43.8109 9.69557 44.0652C8.74523 44.6846 7.61671 44.9725 6.48574 44.8839C5.40302 44.8749 4.32533 44.7356 3.2759 44.4691C2.1489 44.2209 1.05109 43.855 0.000566006 43.3774V46.838C1.9563 47.6931 4.07973 48.0961 6.21279 48.017C8.36374 48.139 10.4913 47.5185 12.2394 46.2594C12.9493 45.7084 13.5177 44.9962 13.8974 44.1818C14.2772 43.3673 14.4573 42.4741 14.423 41.5762C14.4471 40.6699 14.2641 39.7701 13.888 38.9452C13.4835 38.143 12.8872 37.4531 12.1521 36.9366Z" fill="black" fill-opacity="0.2"/>
<path fill-rule="evenodd" clip-rule="evenodd" d="M114.518 44.3926H111.592C110.91 44.4375 110.226 44.3409 109.583 44.1088C109.42 44.0285 109.284 43.9039 109.189 43.7493C109.095 43.5948 109.046 43.4167 109.048 43.2354C109.075 42.8753 109.198 42.5289 109.403 42.2316C109.609 41.9343 109.889 41.6968 110.216 41.5434C112.46 41.9348 114.769 41.4418 116.658 40.1679C117.258 39.6694 117.735 39.038 118.049 38.3237C118.364 37.6095 118.508 36.8318 118.47 36.0523C118.473 35.4887 118.384 34.9283 118.208 34.393C118.056 33.9259 117.836 33.4844 117.553 33.083L118.885 32.7664V30.583H114.583C114.189 30.4854 113.787 30.4196 113.382 30.3865C112.887 30.3138 112.387 30.2773 111.886 30.2774C110.101 30.1595 108.334 30.6993 106.919 31.7948C106.334 32.3344 105.875 32.9972 105.577 33.7353C105.279 34.4734 105.148 35.2684 105.194 36.0632C105.173 37.1203 105.453 38.1616 106.002 39.0653C106.528 39.8831 107.289 40.5224 108.185 40.8993C107.588 41.2394 107.052 41.6787 106.602 42.1984C106.24 42.6573 106.05 43.2294 106.067 43.814C106.073 44.3259 106.233 44.8241 106.526 45.2441C106.819 45.6797 107.233 46.0209 107.716 46.2266C106.665 46.4294 105.699 46.9428 104.943 47.7004C104.286 48.4167 103.934 49.3601 103.96 50.3313C103.934 51.0218 104.088 51.7072 104.408 52.3198C104.728 52.9325 105.202 53.4511 105.783 53.8246C107.388 54.7382 109.225 55.1632 111.068 55.0473C113.455 55.1942 115.835 54.6524 117.924 53.4862C118.678 53.0219 119.295 52.3661 119.713 51.5857C120.132 50.8052 120.335 49.9279 120.304 49.0431C120.342 48.397 120.23 47.7509 119.978 47.1547C119.727 46.5585 119.341 46.028 118.852 45.6044C117.596 44.7013 116.06 44.272 114.518 44.3926V44.3926ZM109.452 33.476C109.76 33.1675 110.132 32.9289 110.54 32.7764C110.949 32.6238 111.386 32.5608 111.821 32.5917C112.253 32.5558 112.687 32.6176 113.091 32.7726C113.496 32.9276 113.86 33.1717 114.157 33.4869C114.723 34.2093 115.003 35.1148 114.943 36.0305C114.943 38.2138 113.906 39.3709 111.821 39.3709C111.389 39.4009 110.956 39.3397 110.55 39.1911C110.144 39.0425 109.773 38.8099 109.463 38.5085C108.883 37.8311 108.592 36.9528 108.655 36.0632C108.571 35.1333 108.84 34.206 109.408 33.465L109.452 33.476ZM115.478 51.7286C114.116 52.3707 112.615 52.6598 111.111 52.5692C110.086 52.6259 109.065 52.4072 108.153 51.936C107.822 51.7691 107.544 51.513 107.351 51.1966C107.158 50.8802 107.058 50.5162 107.061 50.1457C107.048 49.7685 107.123 49.3935 107.28 49.0504C107.437 48.7074 107.673 48.4058 107.967 48.1698C108.68 47.6576 109.547 47.4034 110.423 47.4493H113.153C114.151 47.3712 115.153 47.5282 116.079 47.9078C116.345 48.0722 116.561 48.3071 116.701 48.5866C116.842 48.866 116.902 49.179 116.876 49.4907C116.869 49.9542 116.735 50.407 116.489 50.7997C116.242 51.1924 115.893 51.5099 115.478 51.7177V51.7286Z" fill="#11243E"/>
<path fill-rule="evenodd" clip-rule="evenodd" d="M114.518 44.3926H111.592C110.91 44.4375 110.226 44.3409 109.583 44.1088C109.42 44.0285 109.284 43.9039 109.189 43.7493C109.095 43.5948 109.046 43.4167 109.048 43.2354C109.075 42.8753 109.198 42.5289 109.403 42.2316C109.609 41.9343 109.889 41.6968 110.216 41.5434C112.46 41.9348 114.769 41.4418 116.658 40.1679C117.258 39.6694 117.735 39.038 118.049 38.3237C118.364 37.6095 118.508 36.8318 118.47 36.0523C118.473 35.4887 118.384 34.9283 118.208 34.393C118.056 33.9259 117.836 33.4844 117.553 33.083L118.885 32.7664V30.583H114.583C114.189 30.4854 113.787 30.4196 113.382 30.3865C112.887 30.3138 112.387 30.2773 111.886 30.2774C110.101 30.1595 108.334 30.6993 106.919 31.7948C106.334 32.3344 105.875 32.9972 105.577 33.7353C105.279 34.4734 105.148 35.2684 105.194 36.0632C105.173 37.1203 105.453 38.1616 106.002 39.0653C106.528 39.8831 107.289 40.5224 108.185 40.8993C107.588 41.2394 107.052 41.6787 106.602 42.1984C106.24 42.6573 106.05 43.2294 106.067 43.814C106.073 44.3259 106.233 44.8241 106.526 45.2441C106.819 45.6797 107.233 46.0209 107.716 46.2266C106.665 46.4294 105.699 46.9428 104.943 47.7004C104.286 48.4167 103.934 49.3601 103.96 50.3313C103.934 51.0218 104.088 51.7072 104.408 52.3198C104.728 52.9325 105.202 53.4511 105.783 53.8246C107.388 54.7382 109.225 55.1632 111.068 55.0473C113.455 55.1942 115.835 54.6524 117.924 53.4862C118.678 53.0219 119.295 52.3661 119.713 51.5857C120.132 50.8052 120.335 49.9279 120.304 49.0431C120.342 48.397 120.23 47.7509 119.978 47.1547C119.727 46.5585 119.341 46.028 118.852 45.6044C117.596 44.7013 116.06 44.272 114.518 44.3926V44.3926ZM109.452 33.476C109.76 33.1675 110.132 32.9289 110.54 32.7764C110.949 32.6238 111.386 32.5608 111.821 32.5917C112.253 32.5558 112.687 32.6176 113.091 32.7726C113.496 32.9276 113.86 33.1717 114.157 33.4869C114.723 34.2093 115.003 35.1148 114.943 36.0305C114.943 38.2138 113.906 39.3709 111.821 39.3709C111.389 39.4009 110.956 39.3397 110.55 39.1911C110.144 39.0425 109.773 38.8099 109.463 38.5085C108.883 37.8311 108.592 36.9528 108.655 36.0632C108.571 35.1333 108.84 34.206 109.408 33.465L109.452 33.476ZM115.478 51.7286C114.116 52.3707 112.615 52.6598 111.111 52.5692C110.086 52.6259 109.065 52.4072 108.153 51.936C107.822 51.7691 107.544 51.513 107.351 51.1966C107.158 50.8802 107.058 50.5162 107.061 50.1457C107.048 49.7685 107.123 49.3935 107.28 49.0504C107.437 48.7074 107.673 48.4058 107.967 48.1698C108.68 47.6576 109.547 47.4034 110.423 47.4493H113.153C114.151 47.3712 115.153 47.5282 116.079 47.9078C116.345 48.0722 116.561 48.3071 116.701 48.5866C116.842 48.866 116.902 49.179 116.876 49.4907C116.869 49.9542 116.735 50.407 116.489 50.7997C116.242 51.1924 115.893 51.5099 115.478 51.7177V51.7286Z" fill="black" fill-opacity="0.2"/>
<path fill-rule="evenodd" clip-rule="evenodd" d="M147.358 44.9059C146.727 44.9318 146.111 44.7083 145.644 44.2836C145.413 44.0232 145.237 43.7188 145.126 43.3886C145.015 43.0585 144.972 42.7094 145 42.3623V33.3014H149.804V30.5723H145V26.806H141.572V30.3867L139.639 31.3692V33.3014H141.397V42.4169C141.397 46.0121 143.104 47.8097 146.517 47.8097C147.17 47.8095 147.82 47.7474 148.461 47.6241C148.989 47.5446 149.506 47.4016 150 47.1984V44.491C149.146 44.7641 148.255 44.904 147.358 44.9059V44.9059Z" fill="#11243E"/>
<path fill-rule="evenodd" clip-rule="evenodd" d="M147.358 44.9059C146.727 44.9318 146.111 44.7083 145.644 44.2836C145.413 44.0232 145.237 43.7188 145.126 43.3886C145.015 43.0585 144.972 42.7094 145 42.3623V33.3014H149.804V30.5723H145V26.806H141.572V30.3867L139.639 31.3692V33.3014H141.397V42.4169C141.397 46.0121 143.104 47.8097 146.517 47.8097C147.17 47.8095 147.82 47.7474 148.461 47.6241C148.989 47.5446 149.506 47.4016 150 47.1984V44.491C149.146 44.7641 148.255 44.904 147.358 44.9059V44.9059Z" fill="black" fill-opacity="0.2"/>
<path d="M113.01 10.0373C111.654 9.90602 110.286 10.1247 109.038 10.6725C107.79 11.2204 106.704 12.079 105.882 13.1664C105.061 14.2538 104.532 15.5337 104.346 16.8837C104.161 18.2338 104.324 19.6088 104.822 20.8776L98.8716 24.6547C98.5932 24.8325 98.3798 25.0956 98.2635 25.4048C98.1472 25.7139 98.1342 26.0524 98.2264 26.3695C98.3186 26.6867 98.5111 26.9655 98.775 27.1641C99.039 27.3627 99.3601 27.4704 99.6904 27.4712C99.981 27.473 100.266 27.3895 100.509 27.2311L106.459 23.4648C107.787 24.8863 109.589 25.7718 111.525 25.9538C111.776 25.9538 112.028 25.9538 112.29 25.9538C114.277 25.9489 116.192 25.2035 117.659 23.8632C119.127 22.5229 120.042 20.684 120.227 18.7052C120.415 16.5998 119.761 14.5056 118.409 12.881C117.056 11.2565 115.115 10.234 113.01 10.0373V10.0373ZM116.362 21.6199V15.3101C116.359 15.2299 116.326 15.1537 116.269 15.097C116.213 15.0402 116.136 15.0071 116.056 15.0044H114.768C114.688 15.0071 114.612 15.0402 114.555 15.097C114.498 15.1537 114.465 15.2299 114.462 15.3101V22.9517C114.065 23.1281 113.647 23.2529 113.218 23.3229V17.679C113.218 17.5979 113.185 17.5202 113.128 17.4629C113.071 17.4055 112.993 17.3733 112.912 17.3733H111.591C111.55 17.3719 111.509 17.3787 111.47 17.3934C111.432 17.4081 111.397 17.4304 111.368 17.4589C111.338 17.4874 111.315 17.5216 111.298 17.5594C111.282 17.5973 111.274 17.6379 111.274 17.679V23.3557C110.85 23.2799 110.436 23.1554 110.041 22.9845V19.8623C110.041 19.8213 110.032 19.7806 110.016 19.7428C110 19.705 109.977 19.6708 109.947 19.6422C109.918 19.6137 109.883 19.5914 109.844 19.5767C109.806 19.562 109.765 19.5552 109.724 19.5567H108.447C108.406 19.5551 108.366 19.562 108.328 19.5768C108.29 19.5916 108.256 19.6141 108.227 19.6428C108.198 19.6715 108.176 19.7058 108.161 19.7436C108.146 19.7813 108.139 19.8218 108.141 19.8623V21.5762C107.432 20.7912 106.967 19.8173 106.802 18.7729C106.636 17.7284 106.778 16.6584 107.209 15.6929C107.64 14.7274 108.343 13.9079 109.231 13.3341C110.12 12.7604 111.156 12.457 112.213 12.4608C112.388 12.45 112.563 12.45 112.737 12.4608C113.747 12.5503 114.712 12.919 115.523 13.5257C116.335 14.1324 116.962 14.9531 117.334 15.896C117.706 16.8388 117.808 17.8665 117.628 18.864C117.449 19.8614 116.995 20.7892 116.318 21.5435L116.362 21.6199Z" fill="#FFB84E"/>
</svg>
