<?xml version="1.0" encoding="UTF-8"?>
<!-- WARNING: Intentionally modified the SVG width and height for IE -->
<svg width="150" height="69" viewBox="0 0 1544 710" version="1.1" xmlns="http://www.w3.org/2000/svg" xmlns:xlink="http://www.w3.org/1999/xlink">
    <!-- Generator: Sketch 51.2 (57519) - http://www.bohemiancoding.com/sketch -->
    <title>Sharesight Negative Pro Logo</title>
    <defs>
        <path d="M250.866521,132.994455 C250.866521,198.082652 198.099658,250.866521 133.000292,250.866521 C67.9201881,250.866521 15.1334792,198.082652 15.1334792,132.994455 C15.1334792,67.9021714 67.9201881,15.1334792 133.000292,15.1334792 C198.099658,15.1334792 250.866521,67.9021714 250.866521,132.994455 Z" id="path-1"></path>
    </defs>
    <g id="logo-pro-neg" stroke="none" stroke-width="1" fill="none" fill-rule="evenodd">
        <g id="Sharesight-Pro-Dark" transform="translate(0.000000, 217.000000)">
            <g id="PRO-white" transform="translate(1301.000000, 373.000000)" fill="#FFFFFF" stroke="#FFFFFF" stroke-width="1">
                <path d="M51.7177189,26.288391 C51.7177189,33.9136837 48.863165,40.2875508 43.1539715,45.4101833 C38.2659633,49.7898386 31.3055441,51.9796334 22.2725051,51.9796334 L5.3209776,51.9796334 L5.3209776,86 L0.0419551935,86 L0.0419551935,10.8032587 C0.0419551935,7.32299686 1.31281825,4.68351205 3.85458248,2.88472505 C5.80978574,1.51608277 8.03868402,0.831771894 10.5413442,0.831771894 L26.2610998,0.890427699 C33.8863925,0.890427699 40.0354145,3.20730881 44.7083503,7.84114053 C49.3812861,12.4749723 51.7177189,18.6239943 51.7177189,26.288391 Z M46.2040733,26.4057026 C46.2040733,20.1490522 44.4639685,15.143807 40.9837067,11.3898167 C37.3861327,7.55761831 32.4786462,5.64154786 26.2610998,5.64154786 L10.0720978,5.64154786 C6.90466848,6.11079664 5.3209776,7.81179796 5.3209776,10.7446029 L5.3209776,47.1698574 L24.090835,47.1698574 C30.7385261,47.1698574 36.0370475,45.3906492 39.986558,41.8321792 C44.131589,38.117293 46.2040733,32.9751856 46.2040733,26.4057026 Z M115.848473,26.288391 C115.848473,33.9527878 112.993919,40.3266548 107.284725,45.4101833 C105.798771,46.7397215 104.039114,47.9128259 102.005703,48.9295316 L115.789817,85.9413442 L110.510794,85.9413442 L97.3132383,50.6305499 C94.1067049,51.5299434 90.4700814,51.9796334 86.4032587,51.9796334 L69.4517312,51.9796334 L69.4517312,86 L64.1727088,86 L64.1727088,10.8032587 C64.1727088,7.32299686 65.4435718,4.68351205 67.985336,2.88472505 C69.9405393,1.51608277 72.1694376,0.831771894 74.6720978,0.831771894 L90.3918534,0.890427699 C98.0171461,0.890427699 104.166168,3.20730881 108.839104,7.84114053 C113.51204,12.4749723 115.848473,18.6239943 115.848473,26.288391 Z M110.334827,26.4057026 C110.334827,20.1881563 108.555619,15.1731352 104.997149,11.3604888 C101.438679,7.54784244 96.5702957,5.64154786 90.3918534,5.64154786 L74.2028513,5.64154786 C71.035422,6.11079664 69.4517312,7.81179796 69.4517312,10.7446029 L69.4517312,47.1698574 L88.2215886,47.1698574 C94.8692797,47.1698574 100.167801,45.3906492 104.117312,41.8321792 C108.262343,38.117293 110.334827,32.9751856 110.334827,26.4057026 Z M208.016701,43.9437882 C208.016701,58.0212516 204.30187,68.6378461 196.872098,75.79389 C188.777556,83.575599 179.236307,87.4663951 168.248065,87.4663951 C156.047597,87.4663951 145.919796,83.2432194 137.864358,74.7967413 C131.490396,68.1099462 128.303462,57.8257313 128.303462,43.9437882 C128.303462,30.1009491 131.529499,19.8167342 137.98167,13.090835 C145.958899,4.76166915 156.047597,0.597148676 168.248065,0.597148676 C180.331221,0.597148676 190.400367,4.82032437 198.455804,13.2668024 C204.829767,19.9535976 208.016701,30.1791572 208.016701,43.9437882 Z M202.503055,43.8264766 C202.503055,31.3522798 199.902674,22.2998245 194.701833,16.6688391 C187.741309,9.16085859 178.923475,5.40692464 168.248065,5.40692464 C157.455343,5.40692464 148.598405,9.14130685 141.676986,16.6101833 C136.437041,22.2411687 133.817108,31.3131757 133.817108,43.8264766 C133.817108,56.3397774 136.437041,65.4313362 141.676986,71.1014257 C148.637509,78.6485102 157.494447,82.4219959 168.248065,82.4219959 C178.923475,82.4219959 187.741309,78.6289585 194.701833,71.0427699 C199.902674,65.3726804 202.503055,56.3006734 202.503055,43.8264766 Z" id="PRO"></path>
            </g>
            <g id="sight-white" transform="translate(887.000000, 94.000000)" fill="#FFFFFF">
                <path d="M130.465607,207.59503 C130.465607,236.531821 108.471642,251 64.4830518,251 L47.3310878,251 C26.2118973,251 10.7519483,244.81602 0.950776986,232.447876 L14.07728,224.571974 C22.1282422,232.856297 33.2127339,236.998397 47.3310878,236.998397 L75.1592743,236.998397 C102.229176,236.998397 115.763924,227.547409 115.763924,208.64515 C115.763924,192.426545 102.87091,180.758659 77.0844947,173.641142 L44.3557471,164.5401 C16.2357199,156.722499 2.17591727,142.31266 2.17591727,121.31015 C2.17591727,94.9403318 19.9694435,81.7556206 55.5570297,81.7556206 L72.0089135,81.7556206 L72.0089135,81.5806006 L81.6350158,81.5806006 C102.987567,81.5806006 118.389177,87.5312224 127.840307,99.4326447 L114.713803,107.308547 C107.012883,99.374265 95.461676,95.4071838 80.0598354,95.4071838 L50.1314084,95.4071838 C27.9620924,95.4071838 16.8776007,104.274777 16.8776007,122.01023 C16.8776007,135.4285 28.312129,145.346203 51.1815287,151.763637 L85.3104366,161.389739 C115.414034,169.907424 130.465607,185.309033 130.465607,207.59503 Z M181.919896,34.1501695 C181.919896,41.2676868 178.302851,44.826392 171.068653,44.826392 C164.184497,44.826392 160.742471,41.2676868 160.742471,34.1501695 C160.742471,27.2660135 164.184497,23.8239871 171.068653,23.8239871 C178.302851,23.8239871 181.919896,27.2660135 181.919896,34.1501695 Z M178.594515,251 L163.892832,251 L163.892832,81.7556206 L178.594515,81.7556206 L178.594515,251 Z M382.316239,244.174218 C382.316239,270.427356 375.140489,291.312872 360.788774,306.831393 C345.970337,322.933317 325.551536,330.984159 299.53176,330.984159 C285.996809,330.984159 274.153905,329.584012 264.002692,326.783678 C258.051981,325.150149 246.967489,320.94971 230.748884,314.182235 L235.824465,299.480551 C255.193446,310.68189 276.662357,316.282475 300.23184,316.282475 C321.817753,316.282475 338.56117,309.573441 350.462592,296.155171 C361.897292,283.320303 367.614556,265.993493 367.614556,244.174218 L367.614556,220.546513 C363.297373,225.913821 356.880036,231.747764 348.362351,238.048517 C341.244834,243.182464 335.410891,246.62449 330.860347,248.374699 C320.475773,252.22516 309.449621,254.150361 297.78156,254.150361 C271.995145,254.150361 251.284647,246.01201 235.649445,229.735065 C220.014243,213.45812 212.19676,192.368416 212.19676,166.46532 C212.19676,140.095502 219.722546,118.976629 234.774345,103.108066 C250.059505,86.7727801 270.828342,78.6052599 297.081479,78.6052599 C327.068396,78.6052599 350.579187,91.0898979 367.614556,116.059549 L367.614556,81.7556206 L382.316239,81.7556206 L382.316239,244.174218 Z M367.614556,200.769248 L367.614556,175.041302 C367.614556,151.355138 362.013971,132.044787 350.812632,117.109669 C338.327807,100.307661 320.650959,91.906783 297.78156,91.906783 C276.078966,91.906783 258.868834,98.9075146 246.150648,112.909188 C233.782503,126.444139 227.598523,144.179325 227.598523,166.11528 C227.598523,188.401277 233.665824,206.194803 245.800607,219.496393 C258.402113,233.381385 275.728924,240.323778 297.78156,240.323778 C310.033024,240.323778 321.059176,237.931861 330.860347,233.147956 C345.912146,225.797077 358.163426,215.004283 367.614556,200.769248 Z M550.333875,251 L535.982232,251 L535.982232,150.713517 C535.982232,134.378231 531.606774,120.785144 522.855729,109.933847 C513.404599,98.1491055 500.686603,92.2568231 484.70136,92.2568231 C466.382504,92.2568231 451.972665,98.9658575 441.47141,112.384128 C431.786919,124.635592 426.944746,140.15388 426.944746,158.939459 L426.944746,251 L412.593103,251 L412.593103,0.37130167 L426.944746,0.37130167 L426.944746,111.859068 C440.596378,89.4563904 459.84839,78.2552198 484.70136,78.2552198 C506.287273,78.2552198 522.855671,85.605988 534.407051,100.307745 C545.024987,113.726015 550.333875,131.461202 550.333875,153.513837 L550.333875,251 Z M641.167673,95.7572239 L595.312422,95.7572239 L595.312422,216.696072 C595.312422,230.464384 600.212934,237.348437 610.014106,237.348437 L620.165268,237.348437 L620.165268,251 L612.639406,251 C591.286855,251 580.610739,240.032187 580.610739,218.096232 L580.610739,33.8001295 L595.312422,33.8001295 L595.312422,81.7556206 L641.167673,81.7556206 L641.167673,95.7572239 Z" id="sight-(outline)"></path>
            </g>
            <g id="Share-gray" transform="translate(8.000000, 94.000000)" fill="#AAAAAA">
                <path d="M158.001125,186.417605 C158.001125,208.820282 149.950284,225.622038 133.84836,236.823377 C119.846686,246.624548 101.236408,251.350042 78.0169666,251 L67.8658043,250.82498 L67.8658043,251 L63.4903033,251 C23.9355763,251 4.15850945,229.239393 4.15850945,185.717525 L4.15850945,175.741382 L17.8100726,175.741382 L17.8100726,185.717525 C17.8100726,219.20486 33.4450399,235.948276 64.7154435,235.948276 L70.3160848,235.948276 C87.1180928,235.948276 101.469593,233.55636 113.371015,228.772455 C131.689871,221.421576 140.849161,207.71181 140.849161,187.642745 C140.849161,172.474266 134.490163,160.164646 121.771977,150.713517 C115.004501,145.69625 101.761451,139.220574 82.0424276,131.286292 L65.9405838,124.810551 C43.3045454,115.709463 28.0779541,107.891979 20.2603532,101.357865 C7.19212482,90.5065684 0.658108635,75.6300137 0.658108635,56.7277548 C0.658108635,19.1565982 27.0858705,0.37130167 79.9421871,0.37130167 L97.9692513,0.37130167 C137.407298,0.37130167 157.126025,21.8985514 157.126025,64.9536967 L157.126025,74.929839 L143.474462,74.929839 L143.474462,64.9536967 C143.474462,30.999639 127.781155,14.0228648 96.3940709,14.0228648 L75.5666861,14.0228648 C36.1286397,14.0228648 16.4099123,27.9076492 16.4099123,55.6776345 C16.4099123,70.0293496 21.6021216,81.4055385 31.9866959,89.8065425 C38.4041295,94.9404893 50.1886944,100.891111 67.3407442,107.658587 L92.1935899,117.459709 C114.246225,126.210755 128.539386,133.328165 135.0735,138.812154 C150.35866,151.763702 158.001125,167.632027 158.001125,186.417605 Z M326.018761,251 L311.667118,251 L311.667118,150.713517 C311.667118,134.378231 307.29166,120.785144 298.540615,109.933847 C289.089485,98.1491055 276.371489,92.2568231 260.386246,92.2568231 C242.06739,92.2568231 227.657551,98.9658575 217.156296,112.384128 C207.471805,124.635592 202.629632,140.15388 202.629632,158.939459 L202.629632,251 L188.277989,251 L188.277989,0.37130167 L202.629632,0.37130167 L202.629632,111.859068 C216.281264,89.4563904 235.533276,78.2552198 260.386246,78.2552198 C281.972159,78.2552198 298.540557,85.605988 310.091937,100.307745 C320.709873,113.726015 326.018761,131.461202 326.018761,153.513837 L326.018761,251 Z M526.415104,251 L511.713421,251 L511.713421,219.496393 C502.495653,232.33126 489.660978,241.957266 473.209012,248.374699 C463.29116,252.22516 452.848402,254.150361 441.880425,254.150361 C416.09401,254.150361 395.383512,246.01201 379.74831,229.735065 C364.113109,213.45812 356.295625,192.368416 356.295625,166.46532 C356.295625,140.095502 363.821411,118.976629 378.87321,103.108066 C394.15837,86.7727801 414.927207,78.6052599 441.180345,78.6052599 C471.167262,78.6052599 494.678052,91.0898979 511.713421,116.059549 L511.713421,81.5806006 L526.415104,81.5806006 L526.415104,251 Z M511.713421,197.968928 L511.713421,175.041302 C511.713421,151.355138 506.112836,132.044787 494.911497,117.109669 C482.426672,100.307661 464.749824,91.906783 441.880425,91.906783 C420.177831,91.906783 402.967699,98.9075146 390.249513,112.909188 C377.881368,126.444139 371.697388,144.179325 371.697388,166.11528 C371.697388,188.401277 377.764689,206.194803 389.899473,219.496393 C402.500979,233.381385 419.827789,240.323778 441.880425,240.323778 C453.081763,240.323778 463.524521,237.931861 473.209012,233.147956 C490.01102,224.863632 502.845695,213.137407 511.713421,197.968928 Z M648.92753,97.8574644 L647.877409,97.8574644 C649.044216,97.8574644 642.45186,97.0407123 628.100145,95.4071838 C611.88154,95.2905032 598.171774,102.407914 586.970435,116.759629 C576.3525,130.41126 571.043612,149.954969 571.043612,175.391342 L571.043612,251 L556.691968,251 L556.691968,81.7556206 L571.043612,81.7556206 L571.043612,114.834408 C584.695243,92.3150505 604.41397,81.0555404 630.200385,81.0555404 C632.183956,81.2889017 638.426275,82.1639931 648.92753,83.6808411 L648.92753,97.8574644 Z M849.673913,163.665 C849.673913,166.698696 849.382216,169.26563 848.798813,171.365881 L694.781177,171.365881 C695.947983,192.13503 703.007054,208.820107 715.958602,221.421613 C728.91015,234.023119 745.770245,240.323778 766.539394,240.323778 C777.390691,240.323778 788.416843,238.515255 799.618182,234.898156 C812.219687,230.931015 821.787354,225.505448 828.321468,218.621292 L839.172711,228.947475 C822.837425,245.749483 798.626562,254.150361 766.539394,254.150361 C740.636298,254.150361 719.604934,246.01201 703.444669,229.735065 C687.284405,213.45812 679.204394,192.368416 679.204394,166.46532 C679.204394,141.028947 687.138556,120.026752 703.007119,103.458106 C718.875682,86.889459 739.469501,78.6052599 764.789193,78.6052599 C789.408802,78.6052599 809.710924,86.6269315 825.696168,102.670515 C841.681411,118.714099 849.673913,139.045391 849.673913,163.665 Z M834.27215,157.364278 C832.40526,137.878616 825.22951,122.0978 812.744685,110.021357 C800.259859,97.944914 784.274855,91.906783 764.789193,91.906783 C745.303531,91.906783 729.260188,97.944914 716.658682,110.021357 C704.057176,122.0978 696.823087,137.878616 694.956197,157.364278 L834.27215,157.364278 Z" id="Share"></path>
            </g>
        </g>
        <g id="Thin-Clipped-Gray" transform="translate(1119.000000, -29.000000)">
            <g id="Bars-Gray-–-Clipped" transform="translate(140.533333, 49.866667)">
                <mask id="mask-2" fill="white">
                    <use xlink:href="#path-1"></use>
                </mask>
                <g id="Clip-6"></g>
                <g id="Bars-Grayscale" mask="url(#mask-2)" fill-rule="evenodd">
                    <polygon id="Bar-1" fill="#F0F0F0" style="mix-blend-mode: luminosity;" points="0 266 49.4748359 266 49.4748359 198.4814 0 198.4814"></polygon>
                    <polygon id="Bar-2" fill="#DCDCDC" style="mix-blend-mode: luminosity;" points="54.131291 266 103.606127 266 103.606127 164.140044 54.131291 164.140044"></polygon>
                    <polygon id="Bar-3" fill="#BEBEBE" style="mix-blend-mode: luminosity;" points="108.262582 266 157.737418 266 157.737418 122.814004 108.262582 122.814004"></polygon>
                    <polygon id="Bar-4" fill="#9D9D9D" style="mix-blend-mode: luminosity;" points="162.393873 266 211.868709 266 211.868709 89.0547046 162.393873 89.0547046"></polygon>
                    <polygon id="Bar-5" fill="#737373" style="mix-blend-mode: luminosity;" points="216.525164 0 266 0 266 266 216.525164 266"></polygon>
                </g>
            </g>
            <g id="Thin-Rim" transform="translate(16.433333, 47.600000)" stroke="#6B7278" stroke-width="15">
                <path d="M391.995605,136.021834 C391.406452,210.549291 330.479326,270.486479 255.906992,269.892531 C181.347132,269.303683 121.377167,208.412664 121.972557,133.886341 C122.561143,59.3532177 183.483166,-0.585104116 258.043592,0.0043100673 C332.620463,0.59485774 392.590995,61.4887106 391.995605,136.021834 Z" id="Stroke-1"></path>
                <path d="M152.602026,223.969072 L0,330" id="Stroke-3"></path>
            </g>
        </g>
    </g>
</svg>
