<svg xmlns="http://www.w3.org/2000/svg" width="70" height="29" viewBox="0 0 70 29">
  <g fill="none" fill-rule="evenodd">
    <path fill="#F86D0F" d="M7.92142857,21.9442857 C7.92142857,22.9661905 7.51857143,23.7328571 6.71238095,24.2438095 C6.01142857,24.692381 5.08,24.9071429 3.91761905,24.8909524 L3.19047619,24.8909524 C1.21047619,24.8909524 0.22047619,23.8990476 0.22047619,21.9128571 L0.22047619,21.457619 L0.903809524,21.457619 L0.903809524,21.9128571 C0.903809524,23.44 1.68619048,24.2042857 3.25190476,24.2042857 L3.53190476,24.2042857 C4.37333333,24.2042857 5.09190476,24.0952381 5.68761905,23.8766667 C6.60428571,23.5414286 7.06285714,22.9142857 7.06285714,21.997619 C7.06285714,21.3042857 6.7447619,20.742381 6.10904762,20.31 C5.77047619,20.0814286 5.10761905,19.7852381 4.12142857,19.4228571 L3.31380952,19.132381 C2.18,18.7166667 1.41761905,18.36 1.02666667,18.0614286 C0.372380952,17.5666667 0.0452380952,16.8885714 0.0452380952,16.0257143 C0.0452380952,14.3114286 1.36809524,13.4542857 4.01428571,13.4542857 L4.91666667,13.4542857 C6.89047619,13.4542857 7.87761905,14.4366667 7.87761905,16.4019048 L7.87761905,16.8571429 L7.19428571,16.8571429 L7.19428571,16.4028571 C7.19428571,14.8580952 6.40761905,14.0857143 4.83428571,14.0857143 L3.79047619,14.0857143 C1.81333333,14.0857143 0.824761905,14.717619 0.824761905,15.982381 C0.824761905,16.6366667 1.08571429,17.1557143 1.60761905,17.537619 C1.92952381,17.7714286 2.52142857,18.0428571 3.38333333,18.3509524 L4.62761905,18.7980952 C5.73142857,19.197619 6.44666667,19.5214286 6.77380952,19.772381 C7.53904762,20.3633333 7.92142857,21.0871429 7.92142857,21.9442857 L7.92142857,21.9442857 Z M15.6309524,24.8909524 L14.9133333,24.8909524 L14.9133333,20.31 C14.9133333,19.5633333 14.6942857,18.9428571 14.2557143,18.4471429 C13.7828571,17.9080952 13.1461905,17.64 12.3457143,17.64 C11.4290476,17.64 10.707619,17.9466667 10.1819048,18.5585714 C9.69714286,19.1185714 9.4547619,19.8280952 9.4547619,20.6852381 L9.4547619,24.8909524 L8.73619048,24.8909524 L8.73619048,13.4542857 L9.4547619,13.4542857 L9.4547619,18.542381 C10.1380952,17.5204762 11.1019048,17.0080952 12.3457143,17.0080952 C13.4261905,17.0080952 14.2557143,17.3438095 14.8342857,18.0152381 C15.3661905,18.6271429 15.6309524,19.4366667 15.6309524,20.442381 L15.6309524,24.8909524 L15.6309524,24.8909524 Z M24.9619048,24.8909524 L24.2257143,24.8909524 L24.2257143,23.4542857 C23.7652381,24.0395238 23.122381,24.4785714 22.2985714,24.7714286 C21.7948616,24.948558 21.2644145,25.037637 20.7304762,25.0347619 C19.4390476,25.0347619 18.4028571,24.6642857 17.62,23.9209524 C16.8371429,23.1790476 16.4466667,22.2161905 16.4466667,21.0338095 C16.4466667,19.8304762 16.8233333,18.8666667 17.5757143,18.1428571 C18.3409524,17.3971429 19.3804762,17.0242857 20.6957143,17.0242857 C22.1971429,17.0242857 23.3728571,17.5947619 24.2257143,18.7338095 L24.2257143,17.1604762 L24.9619048,17.1604762 L24.9619048,24.8909524 L24.9619048,24.8909524 Z M24.2257143,22.4714286 L24.2257143,21.4252381 C24.2257143,20.3447619 23.9457143,19.4633333 23.3857143,18.7814286 C22.7619048,18.0152381 21.8785714,17.6319048 20.7352381,17.6319048 C19.65,17.6319048 18.7890476,17.9514286 18.1533333,18.59 C17.5352381,19.2080952 17.2257143,20.017619 17.2257143,21.017619 C17.2257143,22.0347619 17.5290476,22.8466667 18.1357143,23.4542857 C18.7657143,24.0871429 19.6328571,24.4042857 20.7352381,24.4042857 C21.2746019,24.4086609 21.8085923,24.2969256 22.3009524,24.0766667 C23.1409524,23.6990476 23.782381,23.1638095 24.2257143,22.4714286 L24.2257143,22.4714286 Z M30.3938095,17.9038095 L30.3428571,17.8952381 C30.4009524,17.8952381 30.0709524,17.8580952 29.352381,17.7838095 C28.54,17.7795238 27.8542857,18.1047619 27.2928571,18.7595238 C26.7609524,19.3833333 26.4952381,20.2761905 26.4952381,21.4380952 L26.4952381,24.8909524 L25.7761905,24.8909524 L25.7761905,17.1685714 L26.4952381,17.1685714 L26.4952381,18.6780952 C27.1785714,17.6504762 28.1657143,17.1357143 29.4571429,17.1357143 C29.5561905,17.147619 29.8690476,17.1871429 30.3938095,17.2566667 L30.3938095,17.9038095 L30.3938095,17.9038095 Z M39.742381,20.8990476 C39.742381,21.0371429 39.7271429,21.1542857 39.6980952,21.2495238 L31.9890476,21.2495238 C32.0471429,22.2 32.4004762,22.9628571 33.0480952,23.54 C33.6966667,24.1161905 34.5404762,24.4042857 35.5809524,24.4042857 C36.1233333,24.4042857 36.6752381,24.3219048 37.2366667,24.1566667 C37.867619,23.9757143 38.3461905,23.7280952 38.6738095,23.4133333 L39.2161905,23.8852381 C38.3985714,24.6514286 37.1861905,25.0347619 35.5809524,25.0347619 C34.2838095,25.0347619 33.2314286,24.6642857 32.4219048,23.9209524 C31.6133333,23.1790476 31.2085714,22.2161905 31.2085714,21.0338095 C31.2085714,19.8733333 31.6061905,18.9152381 32.4004762,18.1590476 C33.1938095,17.4028571 34.2252381,17.0242857 35.4933333,17.0242857 C36.7257143,17.0242857 37.7419048,17.3904762 38.5419048,18.1209524 C39.342381,18.8514286 39.742381,19.7771429 39.742381,20.8990476 L39.742381,20.8990476 Z M38.9619048,20.6190476 C38.8685714,19.7295238 38.5095238,19.0095238 37.8852381,18.457619 C37.26,17.9071429 36.4595238,17.6319048 35.4842857,17.6319048 C34.5090476,17.6319048 33.7061905,17.9071429 33.0752381,18.457619 C32.4438095,19.0095238 32.082381,19.7295238 31.9890476,20.6190476 L38.9619048,20.6190476 L38.9619048,20.6190476 Z"/>
    <path fill="#FFFFFF" d="M47.04,22.9104762 C47.04,24.2309524 45.9385714,24.8909524 43.7371429,24.8909524 L42.8785714,24.8909524 C41.8214286,24.8909524 41.0480952,24.6095238 40.5566667,24.0452381 L41.2138095,23.6852381 C41.6171429,24.0685714 42.1714286,24.26 42.8785714,24.26 L44.2714286,24.26 C45.6271429,24.26 46.3038095,23.8280952 46.3038095,22.9628571 C46.3038095,22.2204762 45.6585714,21.6861905 44.3685714,21.36 L42.7290476,20.9466667 C41.322381,20.59 40.6185714,19.9328571 40.6185714,18.9733333 C40.6185714,17.77 41.5090476,17.1685714 43.2904762,17.1685714 L44.5957143,17.1685714 C45.6642857,17.1685714 46.4357143,17.4380952 46.9095238,17.9780952 L46.2514286,18.3342857 C45.8661905,17.9780952 45.287619,17.7990476 44.5166667,17.7990476 L43.0185714,17.7990476 C41.9090476,17.7990476 41.3538095,18.2033333 41.3538095,19.0104762 C41.3538095,19.62 41.9266667,20.0719048 43.0709524,20.3633333 L44.78,20.802381 C46.2861905,21.1904762 47.04,21.8942857 47.04,22.9104762 L47.04,22.9104762 Z M48.9147619,14.9966667 C48.9147619,15.3204762 48.7338095,15.4833333 48.3709524,15.4833333 C48.0271429,15.4833333 47.8542857,15.3204762 47.8542857,14.9966667 C47.8542857,14.6819048 48.0271429,14.5247619 48.3709524,14.5247619 C48.7338095,14.5247619 48.9147619,14.6819048 48.9147619,14.9966667 L48.9147619,14.9966667 Z M48.0128571,17.1685714 L48.7480952,17.1685714 L48.7480952,24.8909524 L48.0128571,24.8909524 L48.0128571,17.1685714 L48.0128571,17.1685714 Z M58.2457143,24.5795238 C58.2457143,25.7780952 57.8866667,26.7304762 57.167619,27.4390476 C56.4257143,28.1742857 55.4038095,28.5414286 54.1019048,28.5414286 C53.4238095,28.5414286 52.8314286,28.4771429 52.3228571,28.3495238 C52.0252381,28.2752381 51.47,28.0838095 50.657619,27.7747619 L50.912381,27.1033333 C51.8819048,27.6142857 52.9561905,27.87 54.1366667,27.87 C55.2171429,27.87 56.0547619,27.5642857 56.6509524,26.952381 C57.2238095,26.3657143 57.5095238,25.5747619 57.5095238,24.5795238 L57.5095238,23.5019048 C57.2938095,23.7466667 56.9719048,24.0128571 56.5461905,24.3009524 C56.1890476,24.5342857 55.8971429,24.692381 55.67,24.7714286 C55.1362758,24.9494313 54.5768986,25.0383976 54.0142857,25.0347619 C52.7228571,25.0347619 51.6857143,24.6642857 50.9038095,23.9209524 C50.1209524,23.1790476 49.7290476,22.2161905 49.7290476,21.0338095 C49.7290476,19.8304762 50.1061905,18.8666667 50.8595238,18.1428571 C51.6252381,17.3971429 52.6642857,17.0242857 53.9795238,17.0242857 C55.4795238,17.0242857 56.6566667,17.5947619 57.5095238,18.7338095 L57.5095238,17.1685714 L58.2457143,17.1685714 L58.2457143,24.5795238 L58.2457143,24.5795238 Z M57.5095238,22.5995238 L57.5095238,21.4252381 C57.5095238,20.3447619 57.2295238,19.4633333 56.6695238,18.7814286 C56.0457143,18.0152381 55.1609524,17.6319048 54.017619,17.6319048 C52.9328571,17.6319048 52.0728571,17.9514286 51.4371429,18.59 C50.8190476,19.2080952 50.5095238,20.017619 50.5095238,21.017619 C50.5095238,22.0347619 50.8128571,22.8466667 51.4195238,23.4542857 C52.0495238,24.0871429 52.9152381,24.4042857 54.017619,24.4042857 C54.6304762,24.4042857 55.182381,24.2952381 55.672381,24.0766667 C56.4247619,23.7409524 57.0371429,23.2485714 57.5095238,22.5995238 L57.5095238,22.5995238 Z M65.9552381,24.8909524 L65.2366667,24.8909524 L65.2366667,20.31 C65.2366667,19.5633333 65.0185714,18.9428571 64.5795238,18.4471429 C64.1071429,17.9080952 63.47,17.64 62.67,17.64 C61.7528571,17.64 61.0319048,17.9466667 60.5057143,18.5585714 C60.0214286,19.1185714 59.7790476,19.8280952 59.7790476,20.6852381 L59.7790476,24.8909524 L59.06,24.8909524 L59.06,13.4542857 L59.7790476,13.4542857 L59.7790476,18.542381 C60.462381,17.5204762 61.4261905,17.0080952 62.67,17.0080952 C63.75,17.0080952 64.5795238,17.3438095 65.1585714,18.0152381 C65.6890476,18.6271429 65.9552381,19.4366667 65.9552381,20.442381 L65.9552381,24.8909524 L65.9552381,24.8909524 Z M69.8019048,17.7990476 L67.5057143,17.7990476 L67.5057143,23.3180952 C67.5057143,23.9466667 67.7519048,24.26 68.2419048,24.26 L68.7504762,24.26 L68.7504762,24.8909524 L68.3738095,24.8909524 C67.3052381,24.8909524 66.7704762,24.3914286 66.7704762,23.3904762 L66.7704762,14.9804762 L67.5057143,14.9804762 L67.5057143,17.1685714 L69.8019048,17.1685714 L69.8019048,17.7990476 L69.8019048,17.7990476 Z"/>
    <path fill="#717A83" d="M68.1028571,1.96238095 C66.8852138,0.726233664 65.2251194,0.0263445568 63.49,0.0176190476 L63.4361905,0.0176190476 C61.7110582,0.0130949739 60.0544265,0.69235676 58.8290476,1.90666667 C57.6002668,3.11287421 56.9036667,4.75958601 56.8938095,6.48142857 C56.878355,7.89371887 57.3276068,9.27192639 58.172381,10.4038095 L51.4266667,15.0557143 L51.9014286,15.737619 L58.712381,11.0404762 L58.7742857,11.1038095 C59.9912804,12.3402191 61.6513346,13.0398929 63.3861905,13.047619 L63.4385714,13.0485714 C65.1757143,13.0485714 66.8128571,12.377619 68.0471429,11.1590476 C69.2759851,9.95307738 69.9726082,8.30648251 69.982381,6.5847619 C70.0006831,4.85434276 69.323537,3.18901293 68.1028571,1.96238095 L68.1028571,1.96238095 Z M67.5257143,10.6357143 C66.4385163,11.7127633 64.9689372,12.3152856 63.4385714,12.3114286 L63.3919048,12.3114286 C61.8532738,12.3037051 60.3812352,11.6827718 59.3019048,10.5861905 C58.2193101,9.49863712 57.6185267,8.02206848 57.6342857,6.48761905 C57.6429276,4.96059294 58.2606917,3.50017388 59.3504762,2.43047619 C60.437001,1.35329036 61.9062071,0.750710352 63.4361905,0.754761905 L63.4842857,0.755238095 C65.0228437,0.762393896 66.4949791,1.3830252 67.5742857,2.47952381 C68.6570715,3.56733974 69.2578663,5.04427931 69.2419048,6.57904762 C69.2331363,8.10590833 68.615382,9.56613268 67.5257143,10.6357143 L67.5257143,10.6357143 Z"/>
    <path fill="#F86D0F" d="M59.9085714,10.3695238 L59.9085714,9.53857143 L59.1638095,9.53857143 C59.382381,9.84142857 59.6319048,10.12 59.9085714,10.3695238"/>
    <path fill="#FFF4EE" d="M66.9280952,2.63380952 L66.9280952,10.3790476 C68.0305342,9.39364773 68.6603694,7.98483305 68.6595238,6.50619048 C68.6595238,4.96904762 67.9909524,3.58761905 66.9280952,2.63380952"/>
    <path fill="#FDDDC7" d="M64.6390476,11.577619 C65.423509,11.3914318 66.154291,11.0263667 66.7742857,10.5109524 L66.7742857,4.67809524 L64.6390476,4.67809524 L64.6390476,11.577619"/>
    <path fill="#FBAF7D" d="M62.35,11.6090476 C63.0545745,11.754304 63.7812939,11.755114 64.4861905,11.6114286 L64.4861905,6.17666667 L62.35,6.17666667 L62.35,11.6090476"/>
    <path fill="#F9873A" d="M60.0609524,10.5019048 C60.6808051,11.0193947 61.4119049,11.3865743 62.1971429,11.5747619 L62.1971429,8.01952381 L60.0609524,8.01952381 L60.0609524,10.5019048"/>
  </g>
</svg>
