<svg width="147" height="60" viewBox="0 0 147 60" xmlns="http://www.w3.org/2000/svg"><title>site_logo_bckup</title><g fill="none" fill-rule="evenodd"><path d="M-3-4h154v67H-3z"/><path d="M16.635 46.083c0 2.146-.846 3.756-2.539 4.829-1.472.942-3.428 1.393-5.869 1.359H6.7c-4.158 0-6.237-2.083-6.237-6.254v-.956h1.435v.956c0 3.207 1.643 4.812 4.931 4.812h.588c1.767 0 3.276-.229 4.527-.688 1.925-.704 2.888-2.021 2.888-3.946 0-1.456-.668-2.636-2.003-3.544-.711-.48-2.103-1.102-4.174-1.863l-1.696-.61c-2.381-.873-3.982-1.622-4.803-2.249C.782 36.89.095 35.466.095 33.654c0-3.6 2.778-5.4 8.335-5.4h1.895c4.145 0 6.218 2.063 6.218 6.19v.956h-1.435v-.954c0-3.244-1.652-4.866-4.956-4.866H7.96c-4.152 0-6.228 1.327-6.228 3.983 0 1.374.548 2.464 1.644 3.266.676.491 1.919 1.061 3.729 1.708l2.613.939c2.318.839 3.82 1.519 4.507 2.046 1.607 1.241 2.41 2.761 2.41 4.561M32.825 52.271h-1.507v-9.62c0-1.568-.46-2.871-1.381-3.912-.993-1.132-2.33-1.695-4.011-1.695-1.925 0-3.44.644-4.544 1.929-1.018 1.176-1.527 2.666-1.527 4.466v8.832h-1.509V28.254h1.509v10.685c1.435-2.146 3.459-3.222 6.071-3.222 2.269 0 4.011.705 5.226 2.115 1.117 1.285 1.673 2.985 1.673 5.097v9.342M52.42 52.271h-1.546v-3.017c-.967 1.229-2.317 2.151-4.047 2.766a9.768 9.768 0 0 1-3.293.553c-2.712 0-4.888-.778-6.532-2.339-1.644-1.558-2.464-3.58-2.464-6.063 0-2.527.791-4.551 2.371-6.071 1.607-1.566 3.79-2.349 6.552-2.349 3.153 0 5.622 1.198 7.413 3.59v-3.304h1.546v16.234zm-1.546-5.081v-2.197c0-2.269-.588-4.12-1.764-5.552-1.31-1.609-3.165-2.414-5.566-2.414-2.279 0-4.087.671-5.422 2.012-1.298 1.298-1.948 2.998-1.948 5.098 0 2.136.637 3.841 1.911 5.117 1.323 1.329 3.144 1.995 5.459 1.995a7.895 7.895 0 0 0 3.288-.688c1.764-.793 3.111-1.917 4.042-3.371zM63.827 37.598l-.107-.018c.122 0-.571-.078-2.08-.234-1.706-.009-3.146.674-4.325 2.049-1.117 1.31-1.675 3.185-1.675 5.625v7.251h-1.51V36.054h1.51v3.17c1.435-2.158 3.508-3.239 6.22-3.239.208.025.865.108 1.967.254v1.359M83.459 43.888c0 .29-.032.536-.093.736H67.177c.122 1.996.864 3.598 2.224 4.81 1.362 1.21 3.134 1.815 5.319 1.815 1.139 0 2.298-.173 3.477-.52 1.325-.38 2.33-.9 3.018-1.561l1.139.991c-1.717 1.609-4.263 2.414-7.634 2.414-2.724 0-4.934-.778-6.634-2.339-1.698-1.558-2.548-3.58-2.548-6.063 0-2.437.835-4.449 2.503-6.037 1.666-1.588 3.832-2.383 6.495-2.383 2.588 0 4.722.769 6.402 2.303 1.681 1.534 2.521 3.478 2.521 5.834zM81.82 43.3c-.196-1.868-.95-3.38-2.261-4.539-1.313-1.156-2.994-1.734-5.042-1.734-2.048 0-3.734.578-5.059 1.734-1.326 1.159-2.085 2.671-2.281 4.539H81.82z" fill="#F78F30"/><path d="M98.784 48.112c0 2.773-2.313 4.159-6.936 4.159h-1.803c-2.22 0-3.844-.591-4.876-1.776l1.38-.756c.847.805 2.011 1.207 3.496 1.207h2.925c2.847 0 4.268-.907 4.268-2.724 0-1.559-1.355-2.681-4.064-3.366l-3.443-.868c-2.954-.749-4.432-2.129-4.432-4.144 0-2.527 1.87-3.79 5.611-3.79h2.741c2.244 0 3.864.566 4.859 1.7l-1.382.748c-.809-.748-2.024-1.124-3.643-1.124h-3.146c-2.33 0-3.496.849-3.496 2.544 0 1.28 1.203 2.229 3.606 2.841l3.589.922c3.163.815 4.746 2.293 4.746 4.427M102.721 31.493c0 .68-.38 1.022-1.142 1.022-.722 0-1.085-.342-1.085-1.022 0-.661.363-.991 1.085-.991.762 0 1.142.33 1.142.991zm-1.894 4.561h1.544v16.217h-1.544V36.054zM122.316 51.617c0 2.517-.754 4.517-2.264 6.005-1.558 1.544-3.704 2.315-6.438 2.315-1.424 0-2.668-.135-3.736-.403-.625-.156-1.791-.558-3.497-1.207l.535-1.41c2.036 1.073 4.292 1.61 6.771 1.61 2.269 0 4.028-.642 5.28-1.927 1.203-1.232 1.803-2.893 1.803-4.983v-2.263c-.453.514-1.129 1.073-2.023 1.678-.75.49-1.363.822-1.84.988a10.77 10.77 0 0 1-3.477.553c-2.712 0-4.89-.778-6.532-2.339-1.644-1.558-2.467-3.58-2.467-6.063 0-2.527.792-4.551 2.374-6.071 1.608-1.566 3.79-2.349 6.552-2.349 3.15 0 5.622 1.198 7.413 3.59v-3.287h1.546v15.563zm-1.546-4.158v-2.466c0-2.269-.588-4.12-1.764-5.552-1.31-1.609-3.168-2.414-5.569-2.414-2.278 0-4.084.671-5.419 2.012-1.298 1.298-1.948 2.998-1.948 5.098 0 2.136.637 3.841 1.911 5.117 1.323 1.329 3.141 1.995 5.456 1.995 1.287 0 2.446-.229 3.475-.688 1.58-.705 2.866-1.739 3.858-3.102zM138.506 52.271h-1.509v-9.62c0-1.568-.458-2.871-1.38-3.912-.992-1.132-2.33-1.695-4.01-1.695-1.926 0-3.44.644-4.545 1.929-1.017 1.176-1.526 2.666-1.526 4.466v8.832h-1.51V28.254h1.51v10.685c1.435-2.146 3.459-3.222 6.071-3.222 2.268 0 4.01.705 5.226 2.115 1.114 1.285 1.673 2.985 1.673 5.097v9.342M146.584 37.378h-4.822v11.59c0 1.32.517 1.978 1.546 1.978h1.068v1.325h-.791c-2.244 0-3.367-1.049-3.367-3.151V31.459h1.544v4.595h4.822v1.324" fill="#2F353E"/><path d="M143.016 4.121a13.694 13.694 0 0 0-9.687-4.084h-.113a13.694 13.694 0 0 0-9.675 3.967 13.571 13.571 0 0 0-4.064 9.607 13.524 13.524 0 0 0 2.685 8.237l-14.166 9.769.997 1.432 14.303-9.864.13.133a13.675 13.675 0 0 0 9.685 4.082l.11.002c3.648 0 7.086-1.409 9.678-3.968a13.567 13.567 0 0 0 4.064-9.606 13.558 13.558 0 0 0-3.947-9.707zm-1.212 18.214a12.152 12.152 0 0 1-8.583 3.519h-.098a12.137 12.137 0 0 1-8.589-3.623 12.025 12.025 0 0 1-3.502-8.607 12.034 12.034 0 0 1 3.604-8.52 12.141 12.141 0 0 1 8.58-3.519l.101.001a12.131 12.131 0 0 1 8.589 3.621 12.026 12.026 0 0 1 3.502 8.609 12.034 12.034 0 0 1-3.604 8.519z" fill="#717A83"/><path d="M125.808 21.776v-1.745h-1.564c.459.636.983 1.221 1.564 1.745" fill="#F78F30"/><path d="M140.549 5.531v16.265a10.9 10.9 0 0 0 3.636-8.133c0-3.228-1.404-6.129-3.636-8.132" fill="#FFF4EE"/><path d="M135.742 24.313a10.981 10.981 0 0 0 4.484-2.24V9.824h-4.484v14.489" fill="#FDE3CA"/><path d="M130.935 24.379a11.169 11.169 0 0 0 4.486.005V12.971h-4.486v11.408" fill="#FDD1A4"/><path d="M126.128 22.054a11 11 0 0 0 4.486 2.253v-7.466h-4.486v5.213" fill="#FCC590"/></g></svg>