<svg xmlns="http://www.w3.org/2000/svg" width="36" height="36" viewBox="0 0 36 36" xmlns:xlink="http://www.w3.org/1999/xlink"><defs><path id="a" d="M0 0h36v36H0z"/><path id="c" d="M0 0h36v36H0z"/></defs><g fill="none" fill-rule="evenodd"><mask id="b" fill="#fff"><use xlink:href="#a"/></mask><circle cx="18" cy="18" r="18" fill="#F5A622" mask="url(#b)"/><mask id="d" fill="#fff"><use xlink:href="#c"/></mask><path fill="#FFF" d="M19.385 11.68a.376.376 0 0 1-.267-.465.375.375 0 0 1 .464-.267c.647.168 1.273.43 1.863.773a7.72 7.72 0 0 1 1.603 1.233c.486.485.9 1.026 1.23 1.603.345.59.6 1.223.774 1.863a.374.374 0 0 1-.267.463.375.375 0 0 1-.464-.267 7.007 7.007 0 0 0-1.804-3.13 6.852 6.852 0 0 0-1.45-1.11 6.748 6.748 0 0 0-1.68-.696zm7.65 4.204a.376.376 0 0 1-.267.464.376.376 0 0 1-.464-.268 9.018 9.018 0 0 0-.9-2.172 8.877 8.877 0 0 0-1.442-1.87 9.032 9.032 0 0 0-1.87-1.442c-.69-.4-1.42-.696-2.172-.9a.376.376 0 0 1-.268-.464.376.376 0 0 1 .464-.267 9.666 9.666 0 0 1 4.386 2.537c.62.62 1.14 1.302 1.56 2.026.43.752.753 1.54.97 2.356zm-6.588-8.17a.376.376 0 0 1-.267-.465.376.376 0 0 1 .464-.27c.984.26 1.947.655 2.854 1.18.88.51 1.702 1.14 2.454 1.887a11.82 11.82 0 0 1 3.065 5.309.374.374 0 0 1-.266.464.375.375 0 0 1-.462-.268 10.915 10.915 0 0 0-1.104-2.672 10.976 10.976 0 0 0-1.765-2.298 10.995 10.995 0 0 0-2.3-1.765 10.806 10.806 0 0 0-2.67-1.104zm-1.37 19.195c-2.596 2.91-7.23 2.754-9.986 0-2.754-2.76-2.91-7.39 0-9.987l4.327-3.86 3.058 3.06-4.1 3.873c-.034.035-.07.063-.104.098a2.56 2.56 0 0 0 0 3.628 2.56 2.56 0 0 0 3.63 0c.034-.035.07-.07.097-.105l3.88-4.106 3.06 3.06-3.86 4.34zm1.405-8.03l1.195-1.268c.17-.183.38-.274.626-.274s.464.083.64.26l1.758 1.757c.33.33.346.865.037 1.21l-1.21 1.356-3.044-3.043zm-6.405-6.408l1.357-1.21a.885.885 0 0 1 1.21.036l1.757 1.757c.178.176.26.387.26.64a.848.848 0 0 1-.272.626l-1.266 1.196-3.043-3.045z" mask="url(#d)"/></g></svg>