<svg xmlns="http://www.w3.org/2000/svg" width="36" height="36" viewBox="0 0 36 36" xmlns:xlink="http://www.w3.org/1999/xlink"><defs><path id="a" d="M0 0h36v36H0z"/></defs><g fill="none" fill-rule="evenodd"><mask id="b" fill="#fff"><use xlink:href="#a"/></mask><circle cx="18" cy="18" r="18" fill="#F5A622" mask="url(#b)"/><path d="M23.294 20.394a4.437 4.437 0 0 0-.386-.94 3.177 3.177 0 0 0-.651-.779 7.769 7.769 0 0 0-.761-.614 7.42 7.42 0 0 0-.927-.521 16.613 16.613 0 0 0-.933-.43c-.23-.094-.56-.223-.995-.387-.384-.147-.67-.26-.859-.337a18.97 18.97 0 0 1-.743-.332 4.329 4.329 0 0 1-.687-.38 5.402 5.402 0 0 1-.485-.405 1.382 1.382 0 0 1-.362-.51 1.625 1.625 0 0 1-.105-.59c0-.556.246-1.01.737-1.362.491-.352 1.125-.528 1.903-.528.344 0 .694.047 1.05.141a5.473 5.473 0 0 1 1.633.712c.225.144.384.252.478.326.095.073.154.122.178.147.107.082.217.11.332.086.123-.008.217-.074.282-.196l.995-1.793c.098-.163.078-.319-.061-.466a4.2 4.2 0 0 0-.185-.172 6.378 6.378 0 0 0-.479-.356 5.926 5.926 0 0 0-.78-.46 7.884 7.884 0 0 0-1.067-.412 6.81 6.81 0 0 0-1.357-.282V7.393a.383.383 0 0 0-.11-.283.383.383 0 0 0-.283-.11H17.01a.377.377 0 0 0-.277.117.378.378 0 0 0-.116.276v2.21c-1.285.245-2.329.794-3.13 1.645-.803.851-1.204 1.841-1.204 2.97 0 .336.035.656.104.958.07.303.156.575.258.817.103.241.248.479.436.712.188.233.366.434.534.601.168.168.387.342.657.522s.501.326.694.436a9 9 0 0 0 .767.38c.32.144.57.252.755.326.184.073.436.176.755.306.442.172.77.305.982.4.213.094.483.225.81.392.328.168.567.322.719.46.151.14.288.312.411.516.123.205.185.422.185.651 0 .647-.252 1.146-.755 1.498-.504.352-1.087.528-1.75.528a4.29 4.29 0 0 1-.908-.098c-1.064-.214-2.059-.725-2.984-1.535l-.024-.025a.304.304 0 0 0-.295-.11c-.13.016-.225.065-.282.147l-1.265 1.658c-.123.163-.114.331.025.503.04.05.112.123.215.221.102.098.293.252.57.46.279.21.582.406.91.59.327.184.742.366 1.245.546a7.7 7.7 0 0 0 1.566.38v2.15c0 .106.039.198.116.275.078.078.17.117.277.117h1.657a.383.383 0 0 0 .283-.11.382.382 0 0 0 .11-.283V26.46c1.301-.213 2.36-.772 3.173-1.676.815-.905 1.222-1.983 1.222-3.235 0-.41-.053-.794-.16-1.154z" fill="#FFF"/></g></svg>