<svg xmlns="http://www.w3.org/2000/svg" width="36" height="36" viewBox="0 0 36 36" xmlns:xlink="http://www.w3.org/1999/xlink"><defs><path id="a" d="M0 0h36v36H0z"/></defs><g fill="none" fill-rule="evenodd"><mask id="b" fill="#fff"><use xlink:href="#a"/></mask><circle cx="18" cy="18" r="18" fill="#F5A622" mask="url(#b)"/><path fill="#FFF" d="M27.525 12.478a10.954 10.954 0 0 0-4.003-4.003C21.836 7.492 19.996 7 18 7c-1.995 0-3.836.492-5.521 1.475a10.951 10.951 0 0 0-4.004 4.003C7.492 14.164 7 16.004 7 18c0 1.996.492 3.836 1.475 5.521a10.956 10.956 0 0 0 4.004 4.004C14.164 28.508 16.004 29 18 29s3.836-.492 5.522-1.475a10.951 10.951 0 0 0 4.003-4.004C28.508 21.836 29 19.995 29 18c0-1.996-.492-3.836-1.475-5.522zm-8.149 11.31c-.096-.115-.129-.21-.1-.287-.01.048-.043.09-.1.129a1.366 1.366 0 0 0-.258-.215 1.351 1.351 0 0 1-.258-.215 13.39 13.39 0 0 1-.208-.33 1.443 1.443 0 0 1-.114-.222c-.024-.062-.026-.098-.007-.107-.182.077-.444.024-.788-.157-.067-.039-.167-.139-.3-.301-.134-.163-.273-.234-.416-.215a2.41 2.41 0 0 0-.194.05.749.749 0 0 1-.207.036.654.654 0 0 1-.23-.058 1.847 1.847 0 0 1-.307-.164 2.053 2.053 0 0 0-.265-.15l-.186-.1-.23-.115a.704.704 0 0 1-.179-.136.454.454 0 0 1-.121-.194 2.758 2.758 0 0 1-.072-.343 1.07 1.07 0 0 0-.115-.373 1.291 1.291 0 0 0-.243-.286c-.105-.095-.2-.144-.286-.144.076 0 .076-.064 0-.193a1.451 1.451 0 0 0-.201-.279 17.936 17.936 0 0 1-.415-.459 1.145 1.145 0 0 1-.172-.265c-.048-.1-.058-.184-.029-.25.01-.01 0-.024-.029-.043a.742.742 0 0 0-.107-.058 2.462 2.462 0 0 0-.122-.05.282.282 0 0 0-.086-.021c.02.038.04.107.065.208.024.1.05.174.079.222.019.038.1.177.243.415.248.4.363.697.344.888-.057.019-.096.01-.115-.028a.521.521 0 0 1-.043-.158.9.9 0 0 0-.028-.143c-.03-.058-.103-.12-.223-.187-.119-.066-.193-.133-.222-.2.01 0 .022-.005.036-.015a.07.07 0 0 1 .036-.014c.01-.085-.04-.195-.15-.33-.11-.133-.155-.228-.136-.286-.077-.057-.143-.17-.2-.336a1.263 1.263 0 0 0-.144-.323.613.613 0 0 0-.143-.15 2.826 2.826 0 0 0-.215-.143 6.245 6.245 0 0 1-.172-.107.552.552 0 0 1-.115-.13c-.315-.381-.41-.586-.286-.615-.124.029-.227-.064-.308-.28-.081-.214-.107-.38-.079-.494l-.028-.014c.01-.038.014-.15.014-.337 0-.186.012-.355.036-.508.024-.153.07-.23.136-.23-.067.01-.117-.05-.15-.178-.034-.13-.036-.218-.008-.265.01-.03.053-.01.13.057.076.067.119.11.128.129.124-.067.172-.153.143-.258-.019-.038-.119-.139-.3-.301-.411-.267-.621-.396-.63-.387.057-.105.042-.195-.044-.272-.095.057-.15.072-.164.043a.555.555 0 0 1-.036-.157c-.01-.077-.034-.12-.072-.13-.048-.009-.105-.047-.172-.114a9.04 9.04 0 0 1 3.366-3.18c.057-.009.162-.014.315-.014.077.01.148.034.215.072.067.038.136.09.208.157.071.067.126.115.164.143.02-.057-.004-.143-.071-.257.019-.058.124-.115.315-.172.22-.029.363-.024.43.014a3.768 3.768 0 0 0-.287-.358l-.071.071c-.077-.066-.277-.033-.602.1l-.143.08a1.674 1.674 0 0 1-.186.093.353.353 0 0 1-.172.014 8.114 8.114 0 0 1 1.346-.587c.029.019.076.06.143.121.067.062.12.108.158.136-.029-.019-.048-.01-.057.029-.039.114-.039.21 0 .286a.266.266 0 0 0 .193.115c.081.01.179.005.293-.015.115-.018.192-.028.23-.028l.143.014c.306.029.425 0 .358-.086a.92.92 0 0 1 .1.237c.038.12.082.203.13.25.047-.038.056-.105.028-.2-.029-.096-.029-.163 0-.2.01-.02.038-.04.086-.058l.164-.064c.063-.024.103-.041.122-.05.058-.039.02-.106-.114-.201a.978.978 0 0 0-.122-.043 2.058 2.058 0 0 1-.165-.057.91.91 0 0 1-.15-.08c-.052-.033-.076-.07-.072-.114a.387.387 0 0 1 .08-.164c.056-.048.15-.067.278-.058a.71.71 0 0 1 .294.072c.258.143.296.272.115.387.095.009.21.047.344.114.133.067.186.139.157.215.076-.143.153-.215.23-.215.047.01.092.074.135.194.043.119.07.183.079.193.076.105.152.129.23.071.075-.057.154-.14.235-.25.081-.11.127-.16.136-.15-.095-.039-.105-.077-.028-.115.143-.086.272-.11.387-.072a.543.543 0 0 1 .114.13c.086.171.071.252-.043.243a.312.312 0 0 1 .108.286c-.015.115-.09.167-.223.158a.508.508 0 0 1-.208-.072.644.644 0 0 0-.208-.079c-.047-.005-.114.022-.2.08a1.813 1.813 0 0 0-.15.243 1.096 1.096 0 0 1-.165.243c-.143.143-.382.196-.716.158.028 0 .026.028-.008.086a2.911 2.911 0 0 1-.236.315.73.73 0 0 0-.172.33c0 .018-.005.083-.014.192a.72.72 0 0 1-.058.251c.115-.029.206.029.272.172.058.134.058.205 0 .215.316-.048.593-.029.831.057.344.124.54.249.588.373.057-.086.195-.091.415-.015.086.048.162.191.23.43a.926.926 0 0 0 .193.372c.09.105.188.134.293.086l.043-.028c.032-.016.063-.033.093-.05a.606.606 0 0 0 .079-.058c.029-.024.046-.045.05-.064.004-.02-.002-.039-.021-.057a.517.517 0 0 1-.15-.237.301.301 0 0 1 .021-.265.957.957 0 0 1 .229-.172c.124-.076.2-.153.23-.229.038-.124-.01-.227-.144-.308-.134-.081-.2-.155-.2-.222 0-.048.03-.105.092-.172.063-.067.089-.129.08-.186a.696.696 0 0 0-.05-.18.986.986 0 0 1-.058-.2c-.005-.043.017-.093.064-.15.067-.038.225-.036.473.007.248.043.41.088.487.136.029.019.09.048.186.086.096.038.18.078.251.121.071.043.112.084.121.122h-.071a.344.344 0 0 1 .122.2c.014.077-.022.135-.108.173a.451.451 0 0 1 .23.043c.152.057.157.11.014.157a.919.919 0 0 1 .121-.028.403.403 0 0 0 .193-.093.236.236 0 0 1 .065-.043.457.457 0 0 1 .065-.015.117.117 0 0 1 .085.022c.01 0 .031-.024.065-.072a2.79 2.79 0 0 1 .107-.143c.038-.048.071-.071.1-.071.029 0 .055.011.079.035a.3.3 0 0 1 .057.079c.015.029.029.06.043.093.014.033.026.06.036.079a.38.38 0 0 0 .136.15.384.384 0 0 1 .136.15c.01.029.028.1.057.215a.472.472 0 0 0 .114.237.56.56 0 0 0 .215.107c.02.01.062.005.129-.014a.343.343 0 0 1 .165-.015c.043.01.064.048.064.115.057-.057.086-.096.086-.115.01.125.04.225.093.301.053.076.136.11.25.1l-.028.316c-.028.047-.1.083-.215.107a.783.783 0 0 0-.215.064c-.028.01-.098.067-.208.172-.11.105-.154.168-.136.187-.162-.182-.405-.234-.73-.158-.363.057-.611.115-.745.172a1.042 1.042 0 0 0-.315.215.45.45 0 0 0-.05.1 2.607 2.607 0 0 1-.071.157c-.024.048-.046.072-.065.072.058-.01.122-.055.194-.136a.829.829 0 0 1 .136-.136c.248-.162.453-.22.616-.17.21.057.244.133.1.229-.018.019-.069.026-.15.021a.516.516 0 0 0-.165.007.757.757 0 0 1 .216.079c.057.033.071.079.042.136.153.086.182.181.087.286a.518.518 0 0 1-.444.158c.028 0 .028.02 0 .057l-.244.158a3.02 3.02 0 0 1-.186.071.486.486 0 0 0-.215.13.286.286 0 0 0-.043.171.76.76 0 0 1-.015.172c-.009.039-.047.048-.114.029-.029.057-.117.103-.265.136-.148.033-.246.083-.294.15.057.077.053.153-.014.23-.115.095-.215.085-.3-.03-.048.02-.084.068-.108.144-.024.076-.06.129-.107.158.067.105.057.181-.029.229.01 0 .031.01.064.028.034.02.07.043.108.072.038.029.062.043.071.043-.038.086-.09.129-.157.129.057.153-.014.32-.215.501a.658.658 0 0 1-.18.115c-.08.038-.155.069-.222.093a.467.467 0 0 0-.114.05.97.97 0 0 0-.215.265.31.31 0 0 0-.021.265c.033.086.121.143.265.172l.014.114v.258l.014.115a1.421 1.421 0 0 1 .022.38c-.005.08-.026.126-.065.135-.038.01-.09 0-.157-.028-.077-.038-.167-.249-.273-.63a.956.956 0 0 0-.172-.344.431.431 0 0 1-.121.093c-.033.014-.058.017-.071.007a.943.943 0 0 1-.08-.064.957.957 0 0 0-.1-.079.76.76 0 0 0-.25-.071c-.12-.02-.194-.043-.222-.072-.23.172-.368.129-.416-.129-.019.048-.016.112.008.194.023.081.035.126.035.136-.066.124-.171.133-.315.028-.057-.057-.188-.064-.394-.021-.205.043-.341.05-.408.021.01 0 .029.014.057.043a.39.39 0 0 1 .058.043.18.18 0 0 1-.043.086c-.02.019-.039.026-.058.022a.146.146 0 0 0-.064 0 .242.242 0 0 0-.065.02.885.885 0 0 0-.143.151.713.713 0 0 1-.129.136.95.95 0 0 1 .08.35c-.006.082-.02.201-.044.359a2.647 2.647 0 0 0-.036.38c0 .152.046.33.136.53.091.2.198.338.323.415.067.038.181.062.343.071.163.01.277 0 .344-.028a.352.352 0 0 0 .129-.1.484.484 0 0 0 .071-.165c.02-.072.034-.122.044-.15.066-.182.19-.277.372-.287.115-.01.198.003.25.036.053.033.075.079.065.136a.72.72 0 0 1-.057.179c-.033.07-.07.14-.108.208a.792.792 0 0 0-.078.172 2.25 2.25 0 0 0-.05.322 1.772 1.772 0 0 1-.036.251c.019.01.09.014.215.014a.34.34 0 0 1 .021-.093.407.407 0 0 0 .021-.078c.048.076.125.119.23.128.105.01.181-.028.23-.114.018.029.076.1.171.215.096.114.148.21.158.286.01.039.028.1.057.187.029.086.038.145.029.179-.01.033-.058.05-.144.05-.038 0-.062.014-.071.043a.195.195 0 0 0 0 .107.963.963 0 0 0 .093.244.264.264 0 0 1 .036.078c.172.315.406.401.702.258 0 .277-.067.43-.201.458-.076.02-.161-.03-.257-.143zm.214 3.235a1.147 1.147 0 0 1-.027-.228c-.01-.077.023-.18.1-.308.076-.13.114-.227.114-.294-.153-.038-.21-.162-.172-.372.019-.144.157-.335.415-.573.182-.163.239-.392.172-.688a3.96 3.96 0 0 1-.072-.544 4.873 4.873 0 0 0-.057-.501c0 .028.045.054.136.078.091.024.146.055.165.093a.867.867 0 0 0 .072-.157.729.729 0 0 1 .085-.172.488.488 0 0 1 .122-.108c.062-.043.103-.069.122-.079a.953.953 0 0 0 .128-.093c.067-.052.122-.092.165-.121.044-.029.1-.05.172-.064.072-.015.122.007.15.064.048.057.039.145-.028.265-.067.12-.067.203 0 .25a.988.988 0 0 0 .028-.186.347.347 0 0 1 .086-.215.326.326 0 0 1 .165-.1c.053-.01.1-.002.143.022.043.024.094.057.15.1.058.043.11.069.158.078.143.048.315.153.516.316-.01-.01-.01-.022 0-.036a.15.15 0 0 1 .057-.043c.029-.014.055-.029.079-.043a.401.401 0 0 1 .078-.036l.043-.014a.492.492 0 0 0 .143-.015c.029-.009.07 0 .122.03a.976.976 0 0 1 .208.142c.047.038.08.067.1.086.028.019.08.053.157.1.077.048.136.086.18.115a.376.376 0 0 1 .114.128.282.282 0 0 1 .036.187c.057.01.171.047.343.114a.514.514 0 0 0 .18.05c.09.015.15.036.179.064-1.384 1.462-3.06 2.365-5.027 2.708z"/></g></svg>