<svg xmlns="http://www.w3.org/2000/svg" width="73" height="72" viewBox="0 0 73 72"><title>Group 2</title><g fill="none"><path d="M36.4 71.2c20 0 36.3-15.9 36.3-35.6C72.7 15.9 56.4 0 36.4 0 16.3 0 0 15.9 0 35.6c0 19.7 16.3 35.6 36.4 35.6z" fill="#F6A623"/><path d="M37 19c3.1 0 5.9.8 8.5 2.3 2.6 1.5 4.7 3.6 6.2 6.2S54 32.9 54 36c0 3.1-.8 5.9-2.3 8.5-1.5 2.6-3.6 4.7-6.2 6.2S40.1 53 37 53c-3.1 0-5.9-.8-8.5-2.3-2.6-1.5-4.7-3.6-6.2-6.2S20 39.1 20 36c0-3.1.8-5.9 2.3-8.5 1.5-2.6 3.6-4.7 6.2-6.2S33.9 19 37 19zm6.1 11.5c-.1 0-.1.1-.2.2-.2.2-.3.2-.3.3 0 0 0-.1.1-.2 0 0 0-.1.1-.2v-.2c.1-.1.3-.2.5-.3.2-.1.6-.2 1.2-.3.5-.1.9 0 1.1.3 0 0 .1-.1.2-.3.2-.2.3-.2.3-.3.1 0 .2 0 .4-.1.2 0 .3-.1.3-.1l.1-.5c-.2 0-.4-.1-.4-.2-.1-.1-.2-.2-.2-.4 0 0 0 .1-.1.1 0-.1 0-.1-.1-.1-.1-.1-.2 0-.3 0h-.2c-.1 0-.2-.1-.3-.2-.1 0-.1-.1-.2-.3 0-.2-.1-.3-.1-.4l-.2-.2c-.1-.1-.2-.1-.2-.2v-.1c-.1-.1-.1-.1-.1-.2l-.1-.1-.1-.1c-.1 0-.1.1-.2.1 0 .1-.1.2-.1.3-.1 0-.1.1-.1.1-.1 0-.1-.1-.2-.1 0 .1 0 .1-.1.1h-.1c0 .1-.1.1-.1.1s-.1.1-.2.1H43c.3-.1.3-.1 0-.2-.1-.1-.2-.1-.3-.1.1 0 .2-.1.1-.3 0-.1-.1-.2-.2-.3h.2c-.1 0-.1-.1-.2-.1-.1-.1-.3-.2-.4-.2-.2-.1-.3-.1-.3-.2-.1 0-.4-.1-.8-.2-.3 0-.6-.1-.7 0-.1.1-.1.2-.1.2 0 .1 0 .2.1.4 0 .1.1.2.1.2 0 .1-.1.2-.1.3-.1.1-.2.2-.2.3 0 .1.1.2.3.3.2.1.3.3.2.5 0 .1-.1.2-.3.4-.2.1-.3.2-.4.2 0 .1-.1.3 0 .4.1.2.1.3.2.4.1 0 .1.1.1.1s-.1 0-.1.1c-.1 0-.1 0-.1.1h-.2v.1c-.2.1-.4 0-.5-.1l-.3-.6c-.1-.4-.2-.6-.4-.7-.3-.1-.5-.1-.6 0-.1-.1-.4-.3-.9-.5-.4-.2-.8-.2-1.3-.1.1 0 .1-.1 0-.4-.1-.2-.2-.3-.4-.2 0-.1.1-.2.1-.4v-.3c0-.2.1-.4.3-.5 0 0 0-.1.1-.2s.2-.2.2-.3c.1-.1.1-.1 0-.1.6 0 .9-.1 1.2-.3 0-.1.1-.2.2-.4.1-.1.2-.3.2-.3.2-.1.3-.2.4-.2 0 .1.1.1.3.2.1 0 .2.1.3.1.2 0 .3-.1.3-.3.1-.1 0-.3-.1-.4.1 0 .2-.1 0-.4 0-.1-.1-.2-.1-.2-.2 0-.4 0-.6.1-.2.1-.1.1 0 .2l-.2.2c-.1.2-.3.3-.4.4-.1.1-.2.1-.3-.1 0 0-.1-.1-.1-.3-.1-.2-.2-.3-.3-.3-.1 0-.2.1-.3.3 0-.1 0-.2-.3-.3-.2-.1-.3-.1-.5-.2.3-.1.2-.3-.2-.6-.1 0-.2-.1-.4-.1s-.4 0-.4.1c-.1.1-.2.2-.2.3 0 0 .1.1.1.2.1 0 .2 0 .3.1 0 0 .1 0 .2.1h.2c.2.2.3.3.2.3 0 .1-.1.1-.2.1-.1.1-.2.1-.2.1-.1 0-.2.1-.2.1v.3c.1.2 0 .3 0 .3-.1 0-.2-.2-.2-.4-.1-.1-.1-.3-.2-.3.1.1-.1.1-.5.1h-.6c-.2.1-.3.1-.5 0-.1 0-.2 0-.3-.1V23h.1c0-.1-.1-.1-.2-.2l-.2-.2c-.7.2-1.4.5-2.1.9h.2c.1-.1.2-.1.3-.2.2 0 .2-.1.3-.1.5-.2.8-.3.9-.1l.1-.2c.2.3.4.5.4.6-.1-.1-.3-.1-.6 0s-.5.1-.5.2c.1.2.1.3.1.4-.1 0-.1-.1-.3-.2-.1-.1-.2-.2-.3-.2-.1-.1-.2-.1-.3-.1h-.5c-2.2 1.2-3.9 2.8-5.2 4.9.1.1.2.2.3.2 0 0 .1.1.1.2v.2c.1.1.1 0 .3-.1.1.2.1.3.1.5l.9.6c.3.2.5.4.5.4 0 .2 0 .3-.2.4l-.2-.2c-.1-.1-.2-.1-.2-.1-.1.1-.1.3 0 .5 0 .2.1.2.2.2-.1 0-.2.1-.2.4v.8c0 .3-.1.4-.1.5h.1c-.1.2 0 .4.1.8.1.3.3.5.5.4-.2.1-.1.4.4 1 .1.1.2.1.2.2 0 0 .1 0 .3.1.1.1.2.2.3.2.1.1.2.2.2.3.1.1.1.2.2.5.1.2.2.4.3.5 0 .1.1.2.3.4.1.2.2.4.2.5 0 0 0 .1-.1.1 0 .1.1.2.3.3.2.1.3.2.4.3v.2c0 .1 0 .2.1.3h.1c.1-.3-.1-.8-.5-1.4-.2-.3-.3-.6-.4-.6 0-.1 0-.2-.1-.4 0-.1-.1-.2-.1-.3 0 0 .1 0 .2.1h.1c.1.1.2.1.2.1.1 0 .1.1.1.1-.1.1-.1.2 0 .4.1.1.2.3.3.4.1.1.2.2.3.4l.3.3c.1.1.2.2.3.4.1.2.1.3 0 .3.1 0 .3.1.5.2.1.2.2.3.3.5.1.1.2.3.2.6.1.2.1.4.1.5 0 .1.1.2.2.3.1.1.2.2.3.2l.3.2.3.1c.1.1.2.1.4.3.2.1.4.2.5.2.2.1.3.1.4.1h.3c.1-.1.2-.1.3-.1.2-.1.4.1.6.3.2.3.4.4.5.5.5.3.9.3 1.2.2v.2c.1.1.1.2.2.3.1.2.1.3.2.3 0 .1.1.2.1.2l.4.4c.2.1.3.2.4.3.1-.1.2-.1.2-.2-.1.1 0 .3.1.4.2.2.3.3.4.3.2-.1.3-.3.3-.7-.4.2-.8 0-1.1-.4v-.2s-.1-.1-.1-.2c0 0 0-.1-.1-.1v-.2c.1-.1.1-.1.2-.1s.2 0 .2-.1c0 0 0-.1-.1-.2 0-.2 0-.3-.1-.3 0-.1 0-.3-.2-.5l-.3-.3c0 .1-.2.2-.3.2-.2 0-.3-.1-.4-.2v.3c-.2 0-.3-.1-.4-.1 0 0 .1-.1.1-.4 0-.2 0-.3.1-.5 0 0 0-.1.1-.2s.1-.2.2-.3v-.3c.1-.1 0-.2-.1-.2 0-.1-.2-.1-.3-.1-.3 0-.5.2-.6.5 0 0-.1.1-.1.2s-.1.2-.1.2c0 .1-.1.2-.2.2s-.3.1-.5 0c-.3 0-.5 0-.6-.1-.2-.1-.3-.3-.5-.6-.1-.3-.2-.6-.2-.8 0-.2.1-.4.1-.6 0-.3 0-.4.1-.6 0-.1-.1-.3-.2-.5.1 0 .1-.1.2-.2l.3-.3h.2c.1 0 .1-.1.1-.1 0-.1 0-.1-.1-.1 0-.1-.1-.1-.1-.1.1.1.3.1.7 0 .3-.1.5-.1.6 0 .2.2.4.2.5 0 0 0-.1-.1-.1-.2v-.3c.1.4.3.4.6.2.1 0 .2 0 .4.1.2 0 .3 0 .4.1l.1.1.1.1h.1c.1 0 .2-.1.2-.1.2.2.3.3.3.5.2.6.3.9.4 1h.3s.1-.1.1-.2v-.3c0-.1-.1-.2-.1-.3v-.7c-.2-.1-.4-.2-.4-.3-.1-.1-.1-.3 0-.4.1-.2.2-.3.3-.4.1 0 .1-.1.2-.1s.2-.1.4-.2c.1 0 .2-.1.2-.1.4-.3.5-.6.4-.8.1 0 .2-.1.2-.2l-.1-.1c-.1 0-.1-.1-.2-.1h-.1c.2-.1.2-.2.1-.4.1 0 .1-.1.2-.2 0-.1 0-.2.1-.2.2.1.3.1.5 0 .1-.1.1-.2 0-.4.1-.1.2-.1.5-.2.2 0 .3-.1.4-.2h.1c.1-.1.1-.2.1-.3v-.3c.1 0 .2-.1.4-.2.1 0 .2-.1.3-.1l.3-.2c.1-.1.1-.1 0-.1.3 0 .5-.1.7-.3.2-.1.1-.3-.1-.4 0-.1 0-.2-.1-.2-.1-.1-.2-.1-.3-.1 0 0 .1-.1.2 0 .2 0 .2 0 .3-.1.2-.1.1-.2-.2-.3-.2-.1-.6 0-.9.2zm-3.6 19.4c3-.5 5.6-1.9 7.7-4.1 0-.1-.1-.1-.3-.1-.1-.1-.2-.1-.2-.1-.3-.1-.5-.2-.6-.2.1-.1 0-.2 0-.3l-.2-.2c-.1 0-.1-.1-.3-.2-.1 0-.2-.1-.2-.1s-.1-.1-.2-.1c0-.1-.1-.1-.1-.2-.1 0-.1 0-.2-.1h-.5s0 .1-.1.1c0 0-.1 0-.1.1h-.1v.1c-.3-.3-.6-.4-.8-.5-.1 0-.1-.1-.2-.1-.1-.1-.2-.1-.3-.2h-.2c-.1 0-.2 0-.2.1-.1.1-.2.2-.2.4v.3c-.1-.1-.1-.2 0-.4s.1-.4 0-.4c0-.1-.1-.2-.2-.1-.1 0-.2 0-.3.1 0 0-.1.1-.2.1l-.2.2c-.1 0-.1 0-.2.1s-.2.1-.2.2c0 0-.1.1-.1.2-.1.2-.1.2-.1.3-.1-.1-.2-.1-.3-.2-.1 0-.2 0-.2-.1 0 .2 0 .4.1.8 0 .4 0 .6.1.8.1.5 0 .8-.3 1.1-.4.4-.6.7-.6.9-.1.3 0 .5.2.6 0 .1 0 .2-.1.4-.2.2-.2.4-.2.5 0 .1 0 .2.1.3z" fill="#FFF"/></g></svg>