<svg width="48" height="47" viewBox="0 0 48 47" xmlns="http://www.w3.org/2000/svg"><path d="M24.12 0C11.29 0 .89 10.375.89 23.175S11.29 46.35 24.12 46.35s23.23-10.376 23.23-23.176C47.35 10.375 36.95 0 24.12 0zm2.198 29.266c-2.407 3.38-7.24 4.366-11.01 2.918-3.784-1.438-6.464-5.425-6.145-9.491.083-4.974 4.667-9.331 9.652-9.165 2.389-.11 4.634.927 6.464 2.384a34.641 34.641 0 0 1-2.454 2.535c-2.199-1.517-5.327-1.95-7.527-.199-3.146 2.172-3.289 7.298-.263 9.635 2.943 2.665 8.506 1.341 9.32-2.738-1.844-.028-3.692 0-5.536-.06-.004-1.097-.008-2.195-.004-3.291 3.082-.01 6.164-.014 9.25.01.184 2.58-.157 5.328-1.747 7.462zm13.29-4.725c-.92.01-1.84.014-2.764.023-.01.922-.014 1.84-.019 2.756h-2.753c-.01-.916-.01-1.834-.02-2.752-.918-.009-1.842-.017-2.762-.027V21.8c.92-.01 1.84-.015 2.763-.02.005-.922.014-1.838.023-2.756h2.75c.004.918.009 1.84.018 2.757.92.01 1.843.01 2.763.019v2.742z" fill="#F5F3ED" fill-rule="evenodd"/></svg>