<svg xmlns="http://www.w3.org/2000/svg" width="42" height="42" viewBox="0 0 42 42"><g fill="none" fill-rule="evenodd"><path fill="#1AB4D7" d="M20.774 41.89c11.458 0 20.747-9.288 20.747-20.746C41.52 9.686 32.232.398 20.774.398S.028 9.686.028 21.144c0 11.458 9.288 20.746 20.746 20.746"/><path fill="#FFF" d="M9.959 21.084l3.54-3.55a.634.634 0 0 0-.902-.89l-3.538 3.535-3.553-3.54a.634.634 0 1 0-.892.9l3.54 3.54-3.538 3.545a.632.632 0 0 0 .442 1.088.629.629 0 0 0 .448-.185l3.548-3.543 3.534 3.53a.633.633 0 1 0 .91-.883l-3.54-3.547zm21.048 0c0 .635.517 1.152 1.153 1.152a1.154 1.154 0 0 0 0-2.306c-.636 0-1.153.517-1.153 1.153z"/><path fill="#FFF" d="M28.82 21.084a3.342 3.342 0 0 1 3.339-3.339 3.342 3.342 0 0 1 3.338 3.339 3.342 3.342 0 0 1-3.338 3.337 3.342 3.342 0 0 1-3.339-3.337zm-1.313 0a4.657 4.657 0 0 0 4.652 4.65 4.658 4.658 0 0 0 4.653-4.65 4.658 4.658 0 0 0-4.653-4.652 4.657 4.657 0 0 0-4.652 4.652zm-.33-4.573h-.195c-.586 0-1.151.185-1.623.548a.636.636 0 0 0-.62-.499.627.627 0 0 0-.629.63l.002 7.834a.635.635 0 0 0 1.27 0v-4.818c0-1.606.146-2.254 1.522-2.426.127-.016.265-.013.266-.013.376-.013.643-.272.643-.621a.636.636 0 0 0-.636-.635zm-12.18 3.807c0-.018 0-.036.002-.053a3.361 3.361 0 0 1 6.526.053h-6.529zm7.827-.12c-.273-1.294-.982-2.357-2.06-3.04a4.689 4.689 0 0 0-5.184.137 4.705 4.705 0 0 0-1.96 3.82c0 .374.045.75.139 1.122a4.688 4.688 0 0 0 3.948 3.475 4.428 4.428 0 0 0 1.673-.111 4.58 4.58 0 0 0 1.39-.594c.45-.289.826-.67 1.19-1.127l.023-.025c.252-.313.205-.759-.072-.971-.234-.18-.628-.253-.937.144-.066.094-.14.192-.222.29a3.64 3.64 0 0 1-.917.739c-.466.248-.996.39-1.56.393-1.845-.02-2.832-1.308-3.183-2.227a3.338 3.338 0 0 1-.142-.533 1.2 1.2 0 0 1-.009-.098l6.622-.001c.908-.02 1.396-.66 1.261-1.393z"/></g></svg>