<svg xmlns="http://www.w3.org/2000/svg" width="29" height="41" viewBox="0 0 29 41"><path fill-rule="evenodd" d="M14.21 0A14.113 14.113 0 0 0 .652 10.177C.218 11.42 0 12.886 0 14.423c0 6.004 2.683 8.273 4.785 10.104.218.146.362.366.58.512 1.74 1.465 2.755 2.71 3.335 5.345v8.42c0 1.244.943 2.196 2.175 2.196h6.887c1.16 0 1.886-.879 1.886-2.196v-7.98c.797-2.563 1.884-3.954 3.19-5.126a15.915 15.915 0 0 0 3.044-2.782c1.233-1.318 1.958-2.709 2.393-4.393.508-1.464.725-2.928.725-4.466C29 6.443 22.185 0 14.21 0zm3.915 38.804c0 .732-.29.732-.363.732h-6.887c-.435 0-.652-.44-.652-.732v-.733h7.975v-1.464H10.15v-1.464h7.975v3.66zm8.7-20.72c-.363 1.464-1.087 2.709-2.102 3.88-.798 1.025-1.74 1.83-2.828 2.563l-.072.073c-1.596 1.391-2.828 3.075-3.698 5.93v3.149H10.15v-3.441c-.652-3.075-1.957-4.76-3.843-6.37a1.362 1.362 0 0 1-.507-.44c-2.03-1.757-4.35-3.66-4.35-9.078 0-1.391.218-2.636.58-3.807a12.72 12.72 0 0 1 12.18-9.079c7.105 0 13.34 5.857 13.34 12.593 0 1.318-.218 2.71-.725 4.027zM14.5 13.764c-2.03 0-3.697 1.684-3.697 3.734 0 1.83 1.304 3.295 2.972 3.66v8.128h1.45v-8.2c1.74-.366 3.045-1.83 3.045-3.661 0-2.05-1.668-3.66-3.77-3.66zm.725 5.93v-2.123h-1.45v2.124a2.37 2.37 0 0 1-1.668-2.27c0-1.318 1.088-2.416 2.393-2.416 1.305 0 2.392 1.098 2.392 2.416 0 1.098-.652 1.977-1.667 2.27z"/></svg>