<svg xmlns="http://www.w3.org/2000/svg" width="42" height="42" viewBox="0 0 42 42"><g fill-rule="evenodd"><path d="M21.065 8.03c3.6 0 6.859 1.459 9.218 3.818a12.995 12.995 0 0 1 3.818 9.217 13 13 0 0 1-3.818 9.218 12.995 12.995 0 0 1-9.218 3.818c-3.6 0-6.858-1.46-9.217-3.818a12.995 12.995 0 0 1-3.818-9.218c0-3.6 1.459-6.858 3.818-9.217a12.995 12.995 0 0 1 9.217-3.819zm8.31 4.726a11.714 11.714 0 0 0-8.31-3.442 11.714 11.714 0 0 0-8.309 3.442 11.714 11.714 0 0 0-3.442 8.31c0 3.244 1.316 6.182 3.442 8.309a11.714 11.714 0 0 0 8.31 3.441c3.244 0 6.182-1.315 8.309-3.441a11.714 11.714 0 0 0 3.441-8.31c0-3.245-1.315-6.183-3.441-8.309z"/><path d="M21.225 4.007L25.538.799l.61-.454.344.68L29.002 6l5.31-.836.75-.118-.012.76-.088 5.571 5.09 1.728.72.244-.364.669-2.668 4.892 3.704 3.895.525.551-.633.422-4.636 3.093 1.47 5.172.208.73-.76.08-5.54.584-1.1 5.259-.156.745-.707-.281-5.18-2.059-3.418 4.146-.485.588-.497-.578-3.626-4.227-4.955 2.082-.703.295-.17-.744-1.248-5.429-5.352-.459-.761-.065.194-.738 1.42-5.39L.807 23.69l-.641-.41.513-.561 3.76-4.112-2.665-4.67-.376-.659.718-.259 5.239-1.892-.19-5.372-.027-.76.752.103 5.523.76 2.328-4.843.33-.687.618.441 4.536 3.239zm4.465-1.725l-4.076 3.032-.374.278-.379-.27-4.296-3.068-2.2 4.577-.203.422-.46-.063-5.23-.72.18 5.076.016.466-.44.16-4.963 1.791 2.519 4.414.23.403-.315.345-3.563 3.895 4.28 2.736.394.252-.118.45-1.344 5.103 5.058.433.467.04.105.457 1.181 5.141 4.683-1.967.43-.18.305.356 3.436 4.005 3.231-3.918.298-.36.433.172 4.904 1.95 1.041-4.972.096-.458.466-.05 5.246-.552-1.39-4.887-.126-.447.388-.259 4.39-2.929-3.5-3.68-.321-.339.223-.41 2.527-4.633-4.81-1.632-.442-.15.008-.467.083-5.278-5.02.79-.46.073-.21-.417-2.378-4.71z"/><path d="M14.835 21.02a.642.642 0 0 0-.908.908l3.711 3.712c.251.25.658.25.909 0l.003-.004 9.077-9.077a.642.642 0 0 0-.908-.908l-8.627 8.626-3.257-3.257z"/></g></svg>