<svg xmlns="http://www.w3.org/2000/svg" width="41" height="41" viewBox="0 0 41 41"><g fill-rule="evenodd"><path d="M8.798 40.573H.428V27.76h8.37v12.813zm-6.663-1.708H7.09v-9.396H2.135v9.396zm17.255 1.708h-8.371V19.646h8.37v20.927zm-6.663-1.708h4.954v-17.51h-4.954v17.51zm17.254 1.708h-8.37V9.908h8.37v30.665zm-6.662-1.708h4.954V11.617h-4.954v27.248zm17.254 1.708h-8.37V.427h8.37v40.146zm-6.663-1.708h4.955V2.135H33.91v36.73zM16.577 1.107l1.2 1.214L3.38 16.553l-1.2-1.215z"/><path d="M18.023 9.054l-1.709-.085V2.563l-6.406-.086V.769l8.115.085z"/></g></svg>