<svg xmlns="http://www.w3.org/2000/svg" width="33" height="43" viewBox="0 0 33 43"><g fill="none" fill-rule="evenodd"><path fill="#FFF" d="M0 0h33v43H0z"/><path stroke="#000" stroke-width="1.519" d="M5 5.935h23m0 29.611H5"/><path fill="#000" d="M18.033 3.657c0-.417.345-.759.767-.759.422 0 .767.342.767.76a.765.765 0 0 1-.767.759.765.765 0 0 1-.767-.76zm-2.3 0c0-.417.345-.759.767-.759.422 0 .767.342.767.76a.765.765 0 0 1-.767.759.765.765 0 0 1-.767-.76zm-2.3 0c0-.417.345-.759.767-.759.422 0 .767.342.767.76a.765.765 0 0 1-.767.759.765.765 0 0 1-.767-.76z"/><path stroke="#000" stroke-width="1.519" d="M14.2 38.583h4.6m9.2 0c0 1.678-1.373 3.037-3.067 3.037H8.067C6.373 41.62 5 40.26 5 38.583V4.417C5 2.739 6.373 1.38 8.067 1.38h16.866C26.627 1.38 28 2.74 28 4.417v34.166z"/></g></svg>