<svg xmlns="http://www.w3.org/2000/svg" width="48" height="30" viewBox="0 0 48 30">
  <g fill="#000000" fill-rule="evenodd" transform="translate(0 .02)">
    <polygon points="13.556 4.665 12.841 6.096 16.209 7.78 19.6 7.78 19.6 6.18 16.588 6.18"/>
    <path d="M22.11248,4.58032 C20.77568,4.58032 19.52592,5.24912 18.78432,6.3616 L18.80032,6.3392 L14.9504,11.71408 C14.7766699,11.9584601 14.753911,12.279381 14.8914144,12.5458317 C15.0289178,12.8122825 15.3036747,12.9796773 15.60352,12.97968 L19.5472,12.97968 C20.34928,12.97968 21.09936,12.57808 21.54416,11.91088 L22.19408,10.936 C22.34288,10.7128 22.59168,10.57968 22.85968,10.57968 L23.9192,10.57968 C24.0776,10.57968 24.23008,10.62768 24.35984,10.71408 L36.59728,18.87328 C37.17936,19.26128 37.31088,20.02912 36.89104,20.5888 L36.84464,20.6544 C36.472,21.1512 35.80224,21.28336 35.2696,20.96368 L28.81648,17.092 C28.4367625,16.8642 27.944267,16.9873448 27.7164606,17.3670516 C27.4886542,17.7467585 27.6118025,18.23924 27.99152,18.46704 L34.44464,22.33872 C35.66976,23.07392 37.2688,22.76 38.12592,21.6168 L38.17232,21.5544 C39.13056,20.27696 38.8136,18.428 37.4848,17.54208 L25.24736,9.38592 C24.85168,9.12112 24.38896,8.98288 23.91616,8.98288 L22.85664,8.98288 C22.05472,8.98288 21.30464,9.38448 20.85984,10.05168 L20.21312,11.02656 C20.06432,11.24976 19.81552,11.38288 19.54736,11.38288 L17.16,11.38288 L20.10368,7.2736 C20.1091412,7.26622549 20.1144753,7.25875773 20.11968,7.2512 C20.56496,6.58304 21.3136,6.1824 22.11648,6.1824 L27.15392,6.1824 C27.37648,6.1824 27.59888,6.2144 27.81344,6.2768 L32.38528,7.58304 C32.96272,7.74816 33.5824,7.68864 34.11968,7.42048 L35.16336,6.89872 C35.4295833,6.77646981 35.6078772,6.51869257 35.6283319,6.22646389 C35.6487865,5.93423521 35.5081415,5.654135 35.2615444,5.4959918 C35.0149473,5.3378486 34.7017045,5.32686971 34.44464,5.46736 L33.4008,5.98928 C33.22192,6.07888 33.01808,6.09808 32.82592,6.04208 L28.25392,4.73584 C27.89696,4.63344 27.52608,4.58224 27.15392,4.58224 L22.11248,4.58032 Z"/>
    <polygon points="40.741 14.324 36.741 17.124 37.659 18.436 41.659 15.636"/>
    <polygon points="8.166 14.014 7.034 15.146 10.234 18.346 11.366 17.214"/>
    <path d="M15.86256,16.22992 C15.26624,16.35312 14.71712,16.70256 14.35936,17.2456 L11.18752,22.05792 C10.4728,23.14272 10.78048,24.62608 11.8656,25.33904 L11.8656,25.33904 C11.86624,25.33952 11.8648,25.33904 11.8656,25.33904 L11.9472,25.39184 C13.03568,26.10368 14.51904,25.7936 15.23472,24.70768 L18.40656,19.8952 C19.12128,18.81056 18.81392,17.32704 17.72848,16.61408 L17.64368,16.55808 C17.09936,16.20192 16.45568,16.10288 15.85936,16.22672 L15.86256,16.22992 Z M16.77184,17.90192 L16.85344,17.95472 C17.22256,18.196 17.316,18.64736 17.07232,19.01728 L13.90032,23.83264 C13.65664,24.20256 13.19456,24.296 12.82544,24.05456 L12.74384,24.00176 C12.37488,23.76032 12.28144,23.30608 12.52512,22.93616 L15.69696,18.12064 C15.9408,17.75088 16.4032,17.65744 16.772,17.89888 L16.77184,17.90192 Z"/>
    <path d="M17.67808,19.35184 C17.0752,19.47824 16.51968,19.83248 16.15936,20.38288 L13.9688,23.72976 C13.24816,24.83088 13.5616,26.33104 14.66256,27.05152 C15.76336,27.772 17.26384,27.45856 17.98432,26.35776 L20.17504,23.01104 C20.89552,21.91008 20.58224,20.4096 19.48128,19.68928 C18.93072,19.32912 18.28112,19.22592 17.67808,19.35184 L17.67808,19.35184 Z M18.60624,21.02672 C18.98848,21.2768 19.08784,21.7536 18.83744,22.13616 L16.64688,25.48272 C16.39648,25.86512 15.91968,25.96416 15.53744,25.71408 C15.15488,25.46368 15.05584,24.98736 15.30624,24.6048 L17.4968,21.25792 C17.7472,20.87536 18.22368,20.77632 18.60624,21.02672 L18.60624,21.02672 Z"/>
    <path d="M19.80624 21.83296C19.204 21.96256 18.65024 22.31744 18.29376 22.8704L16.8688 25.08288C16.15552 26.18848 16.4768 27.6864 17.58128 28.4016 18.68576 29.1168 20.18688 28.79472 20.9 27.68912L22.32496 25.47648C23.03824 24.37088 22.7168 22.87312 21.61248 22.15792 21.06032 21.80032 20.40848 21.70352 19.80624 21.83296L19.80624 21.83296zM20.74064 23.50176C21.12416 23.75008 21.22896 24.22688 20.98128 24.61104L19.55312 26.82032C19.30528 27.20448 18.83392 27.3064 18.44992 27.05776 18.0664 26.80944 17.96464 26.33264 18.21248 25.94848L19.63744 23.7392C19.88512 23.3552 20.35696 23.25328 20.74064 23.50176L20.74064 23.50176zM12.06256 16.2112C11.46032 16.3408 10.90656 16.69584 10.54992 17.2488L9.12496 19.46128C8.412 20.56688 8.73616 22.06464 9.84064 22.77984 10.9448 23.4928 12.44368 23.17216 13.15632 22.06736L14.58128 19.85792C15.2944 18.75232 14.97312 17.25136 13.8688 16.53632 13.31648 16.17856 12.66464 16.08192 12.06256 16.2112L12.06256 16.2112zM13 17.88C13.38352 18.12832 13.48528 18.60512 13.23744 18.98944L11.81248 21.19856C11.56464 21.58272 11.09296 21.68448 10.70944 21.436 10.32576 21.18768 10.22416 20.71088 10.47184 20.32672L11.8968 18.11744C12.14464 17.73328 12.61616 17.63136 13 17.88L13 17.88zM26.7688 20.1736C26.4146952 20.1845184 26.1097835 20.4266556 26.0189464 20.7690756 25.9281093 21.1114956 26.0729071 21.4729249 26.37504 21.65792L30.87504 24.4736C32.29472 25.3608 34.17888 24.99408 35.16256 23.6392L35.84992 22.69232C36.0277666 22.4611436 36.065954 22.1515936 35.9496221 21.8841281 35.8332903 21.6166625 35.5808136 21.4335274 35.2904406 21.4059876 35.0000675 21.3784478 34.7176624 21.5108533 34.55312 21.75168L33.8656 22.69856C33.36768 23.38448 32.44368 23.56336 31.72496 23.11424L27.22496 20.30176C27.0892839 20.2140929 26.9302794 20.1694757 26.7688 20.17376L26.7688 20.1736z"/>
    <path d="M25.13744,23.3736 C24.7811397,23.3957416 24.4824535,23.6508969 24.4049277,23.999355 C24.3274019,24.3478132 24.4897345,24.7055313 24.80304,24.87664 L28.45616,26.964 C29.91216,27.796 31.77744,27.396 32.76256,26.03904 L33.47184,25.06112 C33.6496866,24.8299436 33.687874,24.5203936 33.5715421,24.2529281 C33.4552103,23.9854625 33.2027336,23.8023274 32.9123606,23.7747876 C32.6219875,23.7472478 32.3395824,23.8796533 32.17504,24.12048 L31.4656,25.09552 C30.95312,25.80128 30.01056,26.00624 29.25312,25.57344 L25.5968,23.48288 C25.4580785,23.4013127 25.2980114,23.3634006 25.13744,23.37408 L25.13744,23.3736 Z"/>
    <path d="M21.48432 25.8672L20.91248 27.364 25.71248 29.1984C26.9256 29.66192 28.31088 29.2144 29.02192 28.12656L29.72192 27.05472 28.38128 26.17648 27.67808 27.24848C27.37472 27.71216 26.80208 27.89936 26.28432 27.7016L21.48432 25.8672zM9.96256.58048C9.70213269.593132922 9.4642066.731888312 9.32496.95232L.92496 14.15184C.806159948 14.3385504.770003898 14.5661268.82508819 14.7804614.880172483 14.994796 1.02157632 15.1767418 1.21568 15.28304L5.62192 17.68304C5.98849378 17.8828153 6.44705932 17.7671637 6.67504 17.41744L15.0656 4.524C15.1826447 4.34355814 15.2221078 4.12359176 15.1750878 3.91371752 15.1280678 3.70384327 14.9985251 3.52173864 14.81568 3.40848L10.41872.6992C10.2820029.61483159 10.1230524.573574712 9.96256.5808L9.96256.58048zM10.24992 2.47424L13.27808 4.33968 5.73744 15.92368 2.7344 14.28624 10.24992 2.47424zM38.80304.58048C38.6541758.579942289 38.5081137.620946057 38.38128.69888L33.98432 3.40816C33.8014749 3.52141864 33.6719322 3.70352327 33.6249122 3.91339752 33.5778922 4.12327176 33.6173553 4.34323814 33.7344 4.52368L42.12496 17.41712C42.3529407 17.7668437 42.8115062 17.8824953 43.17808 17.68272L47.58128 15.28272C47.7758944 15.1769539 47.9179528 14.9952434 47.9736255 14.780861 48.0292982 14.5664787 47.9936029 14.3386101 47.87504 14.15152L39.47504.952C39.3290628.721618598 39.0757784.581467901 38.80304.58016L38.80304.58048zM38.54688 2.47424L46.0656 14.28624 43.06256 15.92368 35.52192 4.33968 38.54688 2.47424z"/>
  </g>
</svg>
