<svg xmlns="http://www.w3.org/2000/svg" width="40" height="32" viewBox="0 0 40 32">
  <path fill="#000000" fill-rule="evenodd" d="M0,0 L0,9.24444444 L2.13333333,9.24444444 L2.13333333,32 L36.9777778,32 L36.9777778,9.24444444 L39.1111111,9.24444444 L39.1111111,0 L0,0 L0,0 Z M35.5555556,30.5777778 L3.55555556,30.5777778 L3.55555556,9.24444444 L35.5555556,9.24444444 L35.5555556,30.5777778 L35.5555556,30.5777778 Z M37.6888889,7.82222222 L1.42222222,7.82222222 L1.42222222,1.42222222 L37.6888889,1.42222222 L37.6888889,7.82222222 L37.6888889,7.82222222 Z M14.5777778,18.4888889 L24.5333333,18.4888889 C26.0977778,18.4888889 27.3777778,17.2088889 27.3777778,15.6444444 C27.3777778,14.08 26.0977778,12.8 24.5333333,12.8 L14.5777778,12.8 C13.0133333,12.8 11.7333333,14.08 11.7333333,15.6444444 C11.7333333,17.2088889 13.0133333,18.4888889 14.5777778,18.4888889 L14.5777778,18.4888889 Z M14.5777778,14.2222222 L24.5333333,14.2222222 C25.3155556,14.2222222 25.9555556,14.8622222 25.9555556,15.6444444 C25.9555556,16.4266667 25.3155556,17.0666667 24.5333333,17.0666667 L14.5777778,17.0666667 C13.7955556,17.0666667 13.1555556,16.4266667 13.1555556,15.6444444 C13.1555556,14.8622222 13.7955556,14.2222222 14.5777778,14.2222222 L14.5777778,14.2222222 Z"/>
</svg>
