<svg xmlns="http://www.w3.org/2000/svg" width="42" height="39" viewBox="0 0 42 39"><g fill-rule="evenodd"><path d="M22.97 3.855a3.72 3.72 0 0 1-.023.375c.024-.21-.004-.007-.01.032a3.037 3.037 0 0 1-.155.519c.073-.19-.001-.006-.017.028a3.06 3.06 0 0 1-.112.208c-.03.052-.062.1-.094.15-.02.03-.14.19-.016.03a3.072 3.072 0 0 1-.493.497c.156-.127 0-.005-.03.016a3.03 3.03 0 0 1-.354.208c-.032.016-.216.095-.028.017a2.995 2.995 0 0 1-.515.156c-.037.007-.24.039-.032.01a3.045 3.045 0 0 1-.62.013c-.038-.002-.243-.033-.034-.001a2.994 2.994 0 0 1-.353-.08 3.073 3.073 0 0 1-.17-.056c-.035-.012-.22-.09-.033-.009a3.02 3.02 0 0 1-.51-.292c-.163-.113.128.107-.026-.019a3.06 3.06 0 0 1-.256-.24 2.094 2.094 0 0 1-.118-.13c-.024-.027-.142-.185-.022-.024a3.066 3.066 0 0 1-.22-.348c-.028-.052-.053-.106-.079-.16-.087-.182.06.16-.013-.03a3.06 3.06 0 0 1-.106-.345 2.824 2.824 0 0 1-.038-.178c-.04-.205.016.175-.007-.034a3.13 3.13 0 0 1 0-.626c.02-.21-.029.172.007-.033a3.053 3.053 0 0 1 .144-.524c.07-.19-.07.154.013-.03.057-.126.126-.246.2-.362.03-.05.065-.098.099-.146-.116.163-.002.005.022-.024a3.058 3.058 0 0 1 .374-.37c.152-.129-.134.098.027-.019a3.045 3.045 0 0 1 .509-.292c-.184.085-.003.004.033-.009a3 3 0 0 1 .344-.1c.06-.014.119-.025.179-.035-.207.036-.005.002.034-.002a3.062 3.062 0 0 1 .56.006c.207.019-.171-.03.033.006.118.02.235.052.35.087.057.017.113.038.169.059.189.07-.152-.071.03.013a3.015 3.015 0 0 1 .456.267c.163.114-.128-.107.026.019a3.073 3.073 0 0 1 .374.37c.024.027.142.186.022.024.07.095.132.195.191.297.03.051.056.104.083.157.016.033.094.218.017.028a3.068 3.068 0 0 1 .154.52c.008.037.039.242.011.032.016.124.021.25.023.374a.795.795 0 0 0 .784.791c.424 0 .788-.36.784-.79-.012-1.149-.52-2.284-1.425-2.994-.969-.76-2.193-1.036-3.388-.725a3.806 3.806 0 0 0-2.477 2.128 3.954 3.954 0 0 0 .156 3.5c.839 1.521 2.664 2.237 4.312 1.809 1.658-.43 2.805-2.016 2.822-3.719a.794.794 0 0 0-.784-.79c-.43 0-.78.36-.784.79z"/><path d="M24.205 7.652c.178.124-.12-.101.048.035a3.76 3.76 0 0 1 .55.557c-.116-.142.017.027.033.05a3.786 3.786 0 0 1 .325.57c.094.2-.056-.15.024.057a3.77 3.77 0 0 1 .202.783c-.03-.193.004.098.006.134.036.562.006 1.133.006 1.695v1.038c0 .046-.034.237.003.035-.01.06-.03.116-.05.173.063-.184-.003-.017-.026.023a.52.52 0 0 1-.061.066c-.137.138.136-.087-.025.02-.034.023-.208.103-.023.027-.055.022-.113.036-.171.05a2.001 2.001 0 0 0-.087-.002H16.43c-.094-.009-.15-.029-.207-.048.183.064.017-.003-.022-.026-.166-.1.118.11-.025-.02-.03-.028-.146-.177-.029-.018a1.193 1.193 0 0 1-.09-.152c.09.17.01.013-.004-.034-.018-.089-.02-.078-.005.03a1.21 1.21 0 0 1-.007-.125c-.004-.179 0-.358 0-.537V10.13a3.811 3.811 0 0 1 .022-.495c-.018.192.007-.03.012-.059a3.73 3.73 0 0 1 .177-.643c.075-.206-.068.146.021-.054a3.762 3.762 0 0 1 .395-.674c-.108.15.02-.022.038-.043a3.785 3.785 0 0 1 .458-.455c.164-.14-.128.093.046-.035.052-.039.106-.074.16-.11.356-.236.505-.696.28-1.082-.207-.357-.714-.52-1.072-.284-1.027.68-1.781 1.734-2.015 2.96-.127.663-.09 1.348-.09 2.02 0 .608-.056 1.25.054 1.851.173.947 1.103 1.518 2 1.518h8.365c.925 0 1.682-.511 1.991-1.401.096-.277.084-.58.084-.87v-1.009c0-.663.022-1.322-.068-1.98-.176-1.282-1.003-2.419-2.065-3.107-.36-.234-.864-.077-1.073.283-.223.384-.078.85.281 1.082.055.036.11.072.163.11zM8.519 28.284a3.72 3.72 0 0 1-.023.374c.024-.21-.004-.006-.01.032a3.037 3.037 0 0 1-.155.52c.073-.19-.001-.006-.017.028a3.04 3.04 0 0 1-.206.358c-.02.03-.14.19-.016.03a3.073 3.073 0 0 1-.493.497c.156-.127 0-.005-.03.016a3.043 3.043 0 0 1-.198.124c-.05.03-.103.057-.156.083-.032.017-.216.096-.028.018a2.995 2.995 0 0 1-.515.155c-.036.008-.24.04-.031.012a3.04 3.04 0 0 1-.62.012c-.039-.003-.243-.034-.035-.002a2.994 2.994 0 0 1-.353-.08 2.408 2.408 0 0 1-.17-.055c-.035-.012-.22-.09-.033-.009a3.015 3.015 0 0 1-.51-.292c-.163-.114.128.107-.026-.019a3.052 3.052 0 0 1-.374-.37c-.023-.027-.142-.186-.022-.024a3.063 3.063 0 0 1-.22-.349c-.028-.051-.053-.105-.079-.158-.087-.183.06.158-.013-.031a3.06 3.06 0 0 1-.106-.345 2.71 2.71 0 0 1-.038-.179c-.04-.205.017.176-.007-.033a3.13 3.13 0 0 1 0-.626c.02-.21-.029.172.007-.034.02-.12.052-.237.086-.353.017-.057.038-.114.058-.17.07-.191-.07.153.013-.03a2.98 2.98 0 0 1 .2-.363c.03-.05.065-.097.099-.145-.116.163-.002.004.022-.024a2.916 2.916 0 0 1 .374-.37c.152-.13-.134.098.027-.02a3.045 3.045 0 0 1 .509-.291c-.184.085-.002.004.033-.01a3 3 0 0 1 .344-.1c.06-.014.119-.024.179-.035-.207.036-.005.002.034-.001a3.044 3.044 0 0 1 .56.005c.207.02-.171-.029.033.007a2.984 2.984 0 0 1 .519.146c.189.07-.152-.072.03.013a2.825 2.825 0 0 1 .456.267c.163.113-.128-.107.026.019a3.06 3.06 0 0 1 .374.37c.024.027.142.186.023.024.07.094.131.195.19.297.03.05.056.104.083.157.016.033.094.218.017.028a3.05 3.05 0 0 1 .154.52c.008.037.039.242.011.031.017.125.021.25.023.375.004.43.353.79.784.79a.794.794 0 0 0 .784-.79c-.012-1.148-.52-2.283-1.425-2.994-.969-.76-2.193-1.035-3.388-.725a3.806 3.806 0 0 0-2.477 2.129 3.954 3.954 0 0 0 .157 3.5c.838 1.521 2.663 2.236 4.31 1.809 1.659-.43 2.806-2.016 2.823-3.72a.794.794 0 0 0-.784-.79c-.43 0-.78.36-.784.79z"/><path d="M9.591 31.971c.055.036.11.072.163.11.178.124-.12-.102.048.035a3.758 3.758 0 0 1 .55.556c-.116-.142.017.028.033.05a3.786 3.786 0 0 1 .325.571c.094.2-.056-.15.024.056a3.77 3.77 0 0 1 .167.581c.014.068.025.135.035.203-.03-.194.004.098.007.134.035.561.005 1.133.005 1.695V37c0 .046-.034.237.003.035-.01.06-.03.116-.05.173.063-.184-.003-.017-.026.023-.049.071-.043.065.019-.019a1.19 1.19 0 0 1-.08.085c-.137.137.136-.088-.025.02-.034.023-.208.103-.023.026a1.121 1.121 0 0 1-.171.051c.19-.046.017-.004-.036-.003H1.98c-.046 0-.235-.034-.035.003-.059-.01-.115-.03-.172-.05.183.064.017-.003-.022-.027-.166-.1.118.11-.025-.02-.03-.027-.146-.177-.029-.017a1.193 1.193 0 0 1-.09-.152c.09.17.01.013-.004-.034-.018-.089-.02-.079-.005.03a1.21 1.21 0 0 1-.007-.125c-.004-.179 0-.358 0-.537v-1.904a3.811 3.811 0 0 1 .022-.495c-.018.192.007-.03.012-.06a3.76 3.76 0 0 1 .112-.454c.02-.063.042-.126.065-.188.075-.207-.068.146.021-.054a3.762 3.762 0 0 1 .395-.674c-.108.15.02-.022.038-.043a3.765 3.765 0 0 1 .458-.455c.164-.14-.128.093.046-.035.052-.039.106-.074.16-.11.356-.236.505-.696.28-1.082-.207-.358-.714-.52-1.072-.284-1.027.68-1.781 1.734-2.015 2.96-.127.663-.09 1.348-.09 2.02 0 .608-.056 1.25.054 1.851.173.947 1.103 1.518 2 1.518h8.365c.925 0 1.682-.511 1.991-1.401.096-.277.084-.581.084-.87v-1.009c0-.663.022-1.322-.068-1.98-.176-1.282-1.003-2.419-2.065-3.108-.36-.233-.864-.076-1.073.284-.223.384-.078.85.281 1.082zm27.83-3.687a3.72 3.72 0 0 1-.023.374c.024-.21-.004-.006-.01.032a3.037 3.037 0 0 1-.155.52c.073-.19-.001-.006-.017.028a3.06 3.06 0 0 1-.206.358c-.02.03-.14.19-.016.03a3.065 3.065 0 0 1-.493.497c.156-.127 0-.005-.03.016a3.055 3.055 0 0 1-.198.124c-.051.03-.104.057-.156.083-.032.017-.216.096-.028.018a2.999 2.999 0 0 1-.515.155c-.037.008-.24.04-.032.012a3.039 3.039 0 0 1-.62.012c-.038-.003-.243-.034-.034-.002a2.994 2.994 0 0 1-.353-.08 2.408 2.408 0 0 1-.17-.055c-.035-.012-.22-.09-.033-.009a3.015 3.015 0 0 1-.363-.194c-.05-.03-.098-.064-.146-.098-.164-.114.127.107-.027-.019a3.052 3.052 0 0 1-.374-.37c-.024-.027-.142-.186-.022-.024a3.076 3.076 0 0 1-.299-.507c-.087-.183.06.158-.013-.031a3.06 3.06 0 0 1-.106-.345 2.71 2.71 0 0 1-.038-.179c-.04-.205.016.176-.007-.033a3.13 3.13 0 0 1 0-.626c.02-.21-.029.172.007-.034a3.053 3.053 0 0 1 .144-.523c.07-.191-.07.153.013-.03a3.062 3.062 0 0 1 .299-.508c-.116.163-.002.004.022-.024a3.072 3.072 0 0 1 .374-.37c.152-.13-.135.098.027-.02a3.045 3.045 0 0 1 .509-.291c-.184.085-.003.004.032-.01a3 3 0 0 1 .345-.1c.06-.014.119-.024.178-.035-.206.036-.004.002.035-.001a3.044 3.044 0 0 1 .56.005c.207.02-.171-.029.033.007a2.983 2.983 0 0 1 .519.146c.189.07-.153-.072.03.013.107.049.209.108.31.17.05.03.097.063.146.097.163.113-.128-.107.026.019a3.067 3.067 0 0 1 .374.37c.024.027.142.186.022.024a3.076 3.076 0 0 1 .274.454c.016.033.094.218.017.028a3.068 3.068 0 0 1 .154.52c.008.037.039.242.011.031.016.125.021.25.023.375.004.43.353.79.784.79a.794.794 0 0 0 .784-.79c-.012-1.148-.52-2.283-1.425-2.994-.969-.76-2.193-1.035-3.388-.725a3.806 3.806 0 0 0-2.477 2.129 3.954 3.954 0 0 0 .156 3.5c.839 1.521 2.664 2.236 4.312 1.809 1.658-.43 2.804-2.016 2.822-3.72a.794.794 0 0 0-.784-.79c-.43 0-.78.36-.784.79z"/><path d="M38.493 31.971c.055.036.11.072.163.11.178.124-.12-.102.048.035a3.75 3.75 0 0 1 .549.556c-.115-.142.018.028.034.05a3.762 3.762 0 0 1 .325.571c.094.2-.056-.15.024.056a3.77 3.77 0 0 1 .202.783c-.03-.193.004.1.006.135.036.561.006 1.133.006 1.695V37c0 .046-.034.237.003.035-.011.06-.03.116-.05.173.063-.184-.003-.017-.026.023-.05.071-.043.065.019-.019a1.19 1.19 0 0 1-.08.085c-.137.137.135-.088-.025.02-.034.023-.208.103-.023.026a1.121 1.121 0 0 1-.171.051c.19-.046.017-.004-.036-.003h-8.58c-.046 0-.235-.034-.035.003-.059-.01-.115-.03-.172-.05.183.064.017-.003-.022-.027-.166-.1.118.11-.025-.02-.03-.027-.146-.177-.029-.017a1.182 1.182 0 0 1-.09-.152c.09.17.01.013-.004-.034-.018-.089-.02-.079-.005.03a1.21 1.21 0 0 1-.007-.125c-.004-.179 0-.358 0-.537v-1.904a3.811 3.811 0 0 1 .022-.495c-.018.192.007-.03.012-.06a3.76 3.76 0 0 1 .177-.642c.075-.207-.068.146.021-.054a3.772 3.772 0 0 1 .395-.674c-.108.15.02-.022.038-.043a3.765 3.765 0 0 1 .458-.455c.164-.14-.128.093.045-.035.052-.039.107-.074.16-.11.357-.236.506-.696.282-1.082-.208-.358-.715-.52-1.073-.284-1.027.68-1.781 1.734-2.015 2.96-.127.663-.09 1.348-.09 2.02 0 .608-.056 1.25.054 1.851.173.947 1.103 1.518 2 1.518h8.365c.925 0 1.682-.511 1.991-1.401.096-.277.084-.581.084-.87v-1.009c0-.663.022-1.322-.068-1.98-.176-1.282-1.003-2.419-2.065-3.108-.36-.233-.864-.076-1.073.284-.223.384-.078.85.281 1.082zM19.954 17.495v6.734c0 .43.357.79.784.79.428 0 .784-.36.784-.79v-6.734a.795.795 0 0 0-.784-.79.795.795 0 0 0-.784.79z"/><path d="M15.332 28.29a618561.35 618561.35 0 0 1 5.78-3.367.802.802 0 0 0 .282-1.082.788.788 0 0 0-1.073-.284l-5.596 3.26-.185.107a.802.802 0 0 0-.28 1.082c.216.373.702.5 1.072.284z"/><path d="M26.936 26.924l-5.596-3.26c-.061-.035-.123-.07-.184-.107a.789.789 0 0 0-1.073.284.802.802 0 0 0 .281 1.082l5.596 3.259.185.108a.788.788 0 0 0 1.072-.284.802.802 0 0 0-.281-1.082z"/></g></svg>