<svg xmlns="http://www.w3.org/2000/svg" width="31" height="41" viewBox="0 0 31 41"><g fill-rule="evenodd"><path d="M21.238 34.515c0 .293.246.544.533.544a.548.548 0 0 0 .533-.544v-.334c.943-.251 1.599-1.088 1.599-2.134a2.2 2.2 0 0 0-1.599-2.134v-2.092c.451.168.82.502.984.67.205.209.533.209.779 0a.59.59 0 0 0 0-.795c-.082-.084-.82-.837-1.763-1.046v-.335a.548.548 0 0 0-.533-.544.548.548 0 0 0-.533.544v.335a2.152 2.152 0 0 0-1.558 2.092c0 1.004.656 1.84 1.558 2.092v2.05c-.41-.21-.82-.628-.943-.795-.205-.251-.533-.251-.779-.042-.246.21-.246.544-.041.795.082.125.861.962 1.763 1.255v.418zm1.599-2.426c0 .376-.205.753-.533.92v-1.84c.328.167.533.543.533.92zm-2.091-3.263c0-.377.205-.712.492-.92v1.798a1.024 1.024 0 0 1-.492-.878zm-5.74 5.69c0 .292.246.543.533.543a.548.548 0 0 0 .533-.544v-.334c.943-.251 1.599-1.088 1.599-2.134a2.2 2.2 0 0 0-1.599-2.134v-2.092c.451.168.82.502.984.67.205.209.533.209.779 0a.59.59 0 0 0 0-.795c-.082-.084-.82-.837-1.763-1.046v-.335a.548.548 0 0 0-.533-.544.548.548 0 0 0-.533.544v.335a2.152 2.152 0 0 0-1.558 2.092c0 1.004.656 1.84 1.558 2.092v2.05c-.41-.21-.82-.628-.943-.795-.205-.251-.533-.251-.779-.042-.246.21-.246.544-.041.795.082.125.861.962 1.763 1.255v.418zm1.599-2.427c0 .376-.205.753-.533.92v-1.84c.328.167.533.543.533.92zm-2.091-3.263c0-.377.205-.712.492-.92v1.798a1.024 1.024 0 0 1-.492-.878zm-5.986 5.69c0 .292.246.543.533.543a.548.548 0 0 0 .533-.544v-.334c.943-.251 1.599-1.088 1.599-2.134a2.2 2.2 0 0 0-1.599-2.134v-2.092c.451.168.82.502.984.67.205.209.533.209.779 0a.59.59 0 0 0 0-.795c-.082-.084-.82-.837-1.763-1.046v-.335a.548.548 0 0 0-.533-.544.548.548 0 0 0-.533.544v.335a2.152 2.152 0 0 0-1.558 2.092c0 1.004.656 1.84 1.558 2.092v2.05c-.41-.21-.82-.628-.943-.795-.205-.251-.533-.251-.779-.042-.246.21-.246.544-.041.795.082.125.861.962 1.763 1.255v.418zm1.599-2.427c0 .376-.205.753-.533.92v-1.84c.328.167.533.543.533.92zm-2.091-3.263c0-.377.205-.712.492-.92v1.798a1.024 1.024 0 0 1-.492-.878z"/><path d="M29.807 40.665H.984a.92.92 0 0 1-.902-.92V1.13c0-.502.41-.92.902-.92h28.864a.92.92 0 0 1 .902.92v38.615c-.041.502-.451.92-.943.92zm-27.921-1.84h27.019V2.05H1.886v36.774z"/><path d="M9.717 9.915h-2.05a.92.92 0 0 1-.902-.92c0-.502.41-.92.902-.92h2.05a.92.92 0 0 1 .902.92.92.92 0 0 1-.902.92zm0 5.941h-2.05a.92.92 0 0 1-.902-.92c0-.502.41-.92.902-.92h2.05a.92.92 0 0 1 .902.92.92.92 0 0 1-.902.92zm0 6.025h-2.05a.92.92 0 0 1-.902-.92.92.92 0 0 1 .902-.921h2.05a.92.92 0 0 1 .902.92.92.92 0 0 1-.902.92zM23.083 9.915h-9.84a.92.92 0 0 1-.902-.92c0-.502.41-.92.902-.92h9.84a.92.92 0 0 1 .902.92c0 .502-.369.92-.902.92zm0 5.941h-9.84a.92.92 0 0 1-.902-.92c0-.502.41-.92.902-.92h9.84a.92.92 0 0 1 .902.92c0 .502-.369.92-.902.92zm0 6.025h-9.84a.92.92 0 0 1-.902-.92.92.92 0 0 1 .902-.921h9.84a.92.92 0 0 1 .902.92c0 .502-.369.92-.902.92z"/></g></svg>