<svg width="73" height="72" viewBox="0 0 73 72" xmlns="http://www.w3.org/2000/svg"><g fill="none" fill-rule="evenodd"><path d="M36.36 71.233c20.08 0 36.357-15.946 36.357-35.616S56.44 0 36.36 0C16.277 0 0 15.946 0 35.617c0 19.67 16.278 35.616 36.36 35.616z" fill="#F6A623"/><path d="M59.632 45.183h-20.56c-.532 0-.963.355-.963.792v.427h-3.042v-.427c0-.437-.43-.792-.962-.792H13.544c-.532 0-.962.355-.962.792v2.406c0 1.167 1.15 2.115 2.565 2.115H58.03c1.414 0 2.565-.948 2.565-2.114v-2.405c0-.437-.43-.792-.963-.792zm-.962 3.198c0 .293-.286.53-.64.53H15.146c-.353 0-.64-.237-.64-.53V46.77h18.67c.166.695.91 1.22 1.8 1.22H38.2c.89 0 1.635-.525 1.8-1.22h18.67v1.613zM31.296 31.85a1.11 1.11 0 0 0-1.36 0c-.376.31-.376.81 0 1.12l6.048 4.985c.09.073.195.132.314.172a1.154 1.154 0 0 0 .735 0c.118-.04.225-.1.314-.172l6.05-4.984c.376-.31.376-.81 0-1.12a1.11 1.11 0 0 0-1.36 0l-4.41 3.632v-18.8c0-.44-.43-.794-.962-.794-.53 0-.962.355-.962.793v18.802l-4.407-3.632m-13.94 11.27c.532 0 .962-.355.962-.792V24.195c0-.224.222-.407.494-.407h12.68c.532 0 .962-.354.962-.793 0-.438-.43-.792-.962-.792h-12.68c-1.334 0-2.418.893-2.418 1.992V42.33c0 .437.43.792.962.792M41.84 23.788h12.527c.27 0 .49.183.49.407V42.33c0 .437.432.792.963.792.532 0 .963-.355.963-.792V24.195c0-1.1-1.085-1.992-2.416-1.992H41.84c-.533 0-.963.354-.963.792 0 .44.43.793.962.793" fill="#FFF"/></g></svg>