<svg width="48" height="47" viewBox="0 0 48 47" xmlns="http://www.w3.org/2000/svg"><g fill="#F5F3ED" fill-rule="evenodd"><path d="M24.09.133C11.263.133.862 10.511.862 23.31c0 12.802 10.4 23.176 23.23 23.176 12.828 0 23.228-10.374 23.228-23.176 0-12.8-10.4-23.177-23.228-23.177zm12.94 34.434c0 1.032-.858 1.865-1.916 1.865h-22.09c-1.059 0-1.916-.833-1.916-1.865V12.272c0-1.03.857-1.867 1.917-1.867h22.089c1.058 0 1.916.837 1.916 1.867v22.295z"/><path d="M28.575 20.166c-2.078 0-3.008 1.138-3.53 1.94v.038h-.026a.279.279 0 0 0 .027-.038v-1.664H21.13c.05 1.101 0 11.75 0 11.75h3.915V25.63c0-.353.025-.7.129-.953.283-.7.928-1.43 2.008-1.43 1.418 0 1.984 1.08 1.984 2.658v6.287h3.915v-6.737c0-3.61-1.931-5.289-4.507-5.289m-11.541-5.391c-1.339 0-2.215.878-2.215 2.031 0 1.127.849 2.031 2.163 2.031h.025c1.366 0 2.216-.904 2.216-2.03-.025-1.154-.85-2.032-2.19-2.032m-1.983 5.667h3.916v11.75h-3.916v-11.75z"/></g></svg>