<svg xmlns="http://www.w3.org/2000/svg" width="38" height="41" viewBox="0 0 38 41"><path d="M19.709 16.384L1.686 34.512a1.349 1.349 0 0 0 0 1.901l2.623 2.639a1.33 1.33 0 0 0 1.892 0l18.022-18.129m2.094-11.187l-4.886 4.915 2.304 2.317 2.21 2.224 4.886-4.915zm-18.464 6.75c.74-2.916 1.338-3.519 4.237-4.262-2.899-.742-3.498-1.345-4.237-4.261-.74 2.916-1.337 3.519-4.236 4.262 2.899.742 3.497 1.345 4.236 4.261zM20.304 6.412c.335-1.32.606-1.593 1.918-1.929-1.312-.337-1.584-.609-1.918-1.929-.335 1.32-.605 1.594-1.917 1.93 1.312.335 1.584.609 1.917 1.928zm11.224 19.054c-.554 2.187-1.003 2.638-3.177 3.195 2.175.558 2.623 1.01 3.177 3.196.554-2.187 1.004-2.638 3.177-3.196-2.173-.557-2.623-1.008-3.177-3.195z" fill="none" fill-rule="evenodd" stroke="#000" stroke-width="1.26"/></svg>