<svg xmlns="http://www.w3.org/2000/svg" width="73" height="72" viewBox="0 0 73 72"><title>Group 2</title><g fill="none"><path d="M36.4 71.2c20 0 36.3-15.9 36.3-35.6C72.7 15.9 56.4 0 36.4 0 16.3 0 0 15.9 0 35.6c0 19.7 16.3 35.6 36.4 35.6z" fill="#F6A623"/><path d="M54.8 49.6c0 2.1-.7 3.9-2.1 5.3-1.4 1.4-3.1 2.1-5.1 2.1-2.4 0-4.5-.9-6.2-2.7L21 33.5c-2-2.1-3-4.5-3-7.3s1-5.2 2.9-7.2 4.3-3 7.1-3c2.7 0 5.1 1 7.1 3L51 35.3c.2.2.3.4.3.6 0 .3-.3.7-.8 1.2-.5.6-1 .8-1.2.8-.3 0-.5 0-.6-.2l-16-16.3c-1.3-1.4-2.9-2.1-4.7-2.1-1.9 0-3.4.7-4.7 2-1.3 1.4-1.9 3-1.9 4.9 0 1.9.6 3.5 2 4.9l20.3 20.8c1.2 1.1 2.4 1.7 3.9 1.7 1.1 0 2-.4 2.7-1.1.8-.8 1.1-1.7 1.1-2.9 0-1.4-.5-2.7-1.6-3.9L34.5 30.1c-.4-.4-1-.6-1.5-.6-.6 0-1 .2-1.3.5-.3.3-.5.8-.5 1.3 0 .6.2 1.1.6 1.6l10.8 11c.2.2.3.4.3.6 0 .3-.3.7-.8 1.2-.6.6-1 .9-1.3.9-.2 0-.4-.1-.5-.3l-10.8-11c-1.1-1.1-1.7-2.4-1.7-4 0-1.5.5-2.7 1.5-3.7 1-1.1 2.2-1.6 3.7-1.6s2.8.6 3.9 1.7l15.3 15.6c1.7 1.8 2.6 3.9 2.6 6.3z" fill="#FFF"/></g></svg>