<svg viewBox="0 0 36 36" xmlns="http://www.w3.org/2000/svg" fill-rule="evenodd" clip-rule="evenodd" stroke-miterlimit="1.414"><path d="M24.777 13.275L14.97 23.757l-4.288-4.583a.68.68 0 0 0-.994.93l4.785 5.114c.006.006.013.008.019.014.006.005.008.013.013.018.041.037.089.059.134.084.026.015.048.036.075.047a.67.67 0 0 0 .256.053.674.674 0 0 0 .256-.053c.027-.011.048-.032.074-.047.046-.025.094-.047.134-.084.006-.005.008-.013.014-.018.005-.006.013-.008.019-.014L25.77 14.205a.68.68 0 0 0-.993-.93" fill="#ffa600" fill-rule="nonzero" stroke="#ffa600"/><circle cx="18" cy="18" r="17" fill="none" stroke-width="2" stroke="#f6a623"/></svg>