<svg viewBox="0 0 36 36" xmlns="http://www.w3.org/2000/svg" fill-rule="evenodd" clip-rule="evenodd" stroke-miterlimit="1.414"><path d="M18 36c9.941 0 18-8.059 18-18S27.941 0 18 0 0 8.059 0 18s8.059 18 18 18zm0-2C9.163 34 2 26.837 2 18S9.163 2 18 2s16 7.163 16 16-7.163 16-16 16z" fill="#4a4a4a" fill-rule="nonzero"/><path d="M25.272 12.215l-9.807 10.482-4.288-4.583a.68.68 0 1 0-.994.93l4.785 5.114c.006.006.013.008.019.013.006.006.008.013.013.019.041.037.089.058.134.084.026.015.048.036.075.047a.689.689 0 0 0 .256.052.693.693 0 0 0 .256-.052c.027-.011.048-.032.074-.047.046-.026.094-.047.134-.084.006-.006.008-.013.014-.019.005-.005.013-.007.019-.013l10.303-11.013a.68.68 0 0 0-.993-.93" fill="#4a4a4a" fill-rule="nonzero" stroke="#4a4a4a"/></svg>