<svg width="74" height="72" viewBox="0 0 74 72" xmlns="http://www.w3.org/2000/svg"><g fill="none" fill-rule="evenodd"><path d="M37.008 71.233c20.08 0 36.36-15.946 36.36-35.616S57.087 0 37.007 0 .65 15.946.65 35.617c0 19.67 16.278 35.616 36.358 35.616z" fill="#F6A623"/><g fill="#FFF"><path d="M58.505 20.834c-2.266-1.68-6.035-2.602-10.615-2.602-3.31 0-6.915.482-10.717 1.432l-.537.133C25.75 22.522 20.79 27.12 19.77 30.56c-.046.203-.416 2.02.652 3.065.47.46 1.14.704 1.936.704 1.378 0 3.2-.74 5.563-2.255.095-.028.184-.067.264-.118a.727.727 0 0 0 .357-.565 4.067 4.067 0 0 1 .54-1.79c-.15.71-.26 1.453-.268 2.137-.006.373.324.695.776.756.847.115 1.9.26 2.99.26 3.193 0 5.427-1.256 6.825-3.836a.648.648 0 0 0 .077-.335l-.098-2.167 1.23 1.676c.075.104.18.19.306.254 1.51.77 3.017 1.162 4.476 1.162 2.69 0 4.72-1.29 6.35-2.555.334-.258.385-.675.123-.983-.477-.562-1.08-1.128-1.692-1.648a5.56 5.56 0 0 1 1.677 1.238c.16.173.417.27.682.29.085.004.167.002.25-.013.68.04 1.32.062 1.9.062 2.967 0 4.687-.54 5.257-1.65.782-1.518-1.173-3.202-1.435-3.418zm-.282 2.833c-.18.346-1.202.716-3.538.716a28.95 28.95 0 0 1-1.657-.053c-1.084-1.03-3.022-2.173-6.38-2.42-.412-.037-.795.164-.947.476-.152.312-.035.67.29.877.025.016 2.342 1.517 3.86 3.048-1.277.92-2.71 1.682-4.456 1.682-1.048 0-2.157-.282-3.302-.837l-2.976-4.06c-.22-.296-.66-.432-1.065-.337-.406.098-.68.41-.664.756l.227 4.95c-1.405 2.453-3.424 2.772-5.036 2.772-.634 0-1.267-.058-1.863-.13.202-1.965 1.092-4.27 1.102-4.297.125-.32-.023-.67-.364-.858a1.1 1.1 0 0 0-1.112.04c-2.612 1.737-3.43 3.57-3.62 4.92-2.578 1.65-3.836 1.9-4.362 1.9-.302 0-.425-.08-.504-.158-.406-.395-.345-1.398-.263-1.78.85-2.852 5.442-7.085 15.59-9.624l.166-.04c.014-.002.116-.027.13-.03l.246-.065c3.622-.906 7.042-1.365 10.168-1.365 4.055 0 7.468.803 9.323 2.176.56.468 1.222 1.333 1.01 1.74zm-20.017-4.603c-.24-.637-1.067-.996-1.85-.8-.78.195-1.22.87-.98 1.508l2.83-.708"/><path d="M42.288 31.435c-.15-.4-.672-.63-1.163-.503-.492.123-.768.548-.618.948l7.923 21.05c.123.326.49.537.89.537.09 0 .18-.01.273-.034.49-.123.768-.548.617-.948l-7.922-21.05m.557 14.908c-.207-.32-.663-.473-1.088-.37l-6.64 1.617-19.543-12.298c-.035-.02-.077-.028-.113-.044a.736.736 0 0 0-.158-.064 1.052 1.052 0 0 0-.188-.03.949.949 0 0 0-.16-.01 1.096 1.096 0 0 0-.2.03c-.034.01-.07.007-.106.018-.017.006-.028.018-.044.024-.058.023-.107.056-.16.088-.047.03-.095.06-.135.096-.014.012-.03.017-.043.03-.025.026-.032.058-.052.086a.72.72 0 0 0-.084.14c-.018.045-.025.09-.034.138a.583.583 0 0 0-.01.145c.003.05.02.1.035.15.012.032.01.064.025.094 3.612 7.107 8.17 11.543 13.56 13.213L17.11 51.98c-.493.12-.774.543-.627.945.122.33.492.542.892.542.09 0 .18-.01.268-.032l13.71-3.343c1.56.122 3.03.017 4.36-.21l5.444 3.427c.17.104.37.157.57.157.278 0 .553-.102.737-.296.314-.33.238-.807-.168-1.064l-4.364-2.746c2.76-.815 4.55-1.985 4.682-2.074.343-.23.44-.624.23-.943zm-11.66 2.206c-.47-.047-.95-.12-1.435-.217-4.758-.97-8.9-4.323-12.347-9.97l15.518 9.763-1.735.423z"/></g></g></svg>