<svg xmlns="http://www.w3.org/2000/svg" width="36" height="36" viewBox="0 0 36 36" xmlns:xlink="http://www.w3.org/1999/xlink"><defs><path id="a" d="M0 0h36v36H0z"/><path id="c" d="M0 0h36v36H0z"/></defs><g fill="none" fill-rule="evenodd"><mask id="b" fill="#fff"><use xlink:href="#a"/></mask><circle cx="18" cy="18" r="18" fill="#F5A622" mask="url(#b)"/><mask id="d" fill="#fff"><use xlink:href="#c"/></mask><path fill="#FFF" d="M11.94 22.746v-2.848H9.28v2.848h2.66zm3.79 0v-5.688h-2.652v5.688h2.65zm3.88 0v-8.53h-2.65v8.53h2.65zm7.053-3.88c0 1.44-.732 2.418-2.222 2.55v1.33h-1.138v-1.33c-1.386-.027-2.37-1.025-2.37-2.558h1.8c0 .717.506.998 1.04.99.59 0 1.04-.315 1.04-.9 0-1.11-1.257-1.068-2.17-1.433-1.042-.415-1.548-1.083-1.548-2.16 0-1.278.97-2.25 2.2-2.368V11.94h1.04v1.047c1.19.098 2.082.942 2.082 2.172H24.54c-.057-.514-.388-.676-.81-.662-.42.007-.71.282-.71.71 0 .908 1.027.985 1.603 1.168.486.154.9.38 1.26.69.52.442.78 1.215.78 1.8zM7.58 9.385h20.84V24.16H7.58V9.386zm8.156 17.234h4.55v1.892h-3.6v.38h5.97v.95h-9.283v-.95h.19l1.8-.303c.21-.036.38-.128.38-.345l-.007-1.625zM5.87 9.577V23.97c0 .52.212.998.557 1.335.344.345.815.556 1.336.556h20.46c.52 0 1-.21 1.336-.555a1.88 1.88 0 0 0 .555-1.335V9.577c0-.52-.21-1-.556-1.336a1.885 1.885 0 0 0-1.337-.555H7.763c-.52 0-1 .21-1.336.556a1.899 1.899 0 0 0-.556 1.337z" mask="url(#d)"/></g></svg>