<svg xmlns="http://www.w3.org/2000/svg" width="73" height="72" viewBox="0 0 73 72"><title>Group 2</title><g fill="none"><path d="M36.4 71.2c20 0 36.3-15.9 36.3-35.6C72.7 15.9 56.4 0 36.4 0 16.3 0 0 15.9 0 35.6c0 19.7 16.3 35.6 36.4 35.6z" fill="#F6A623"/><path d="M46.6 40.3c2.6 0 4.8.9 6.7 2.7 1.8 1.8 2.7 4 2.7 6.6 0 2.6-.9 4.8-2.7 6.7-1.9 1.8-4.1 2.7-6.7 2.7-2.6 0-4.8-.9-6.6-2.7-1.8-1.9-2.7-4.1-2.7-6.7v-1l-10.5-5.2c-1.8 1.6-4 2.5-6.4 2.5-2.6 0-4.8-.9-6.7-2.8-1.8-1.8-2.7-4-2.7-6.6 0-2.6.9-4.8 2.7-6.6 1.9-1.9 4.1-2.8 6.7-2.8 2.4 0 4.6.9 6.4 2.5l10.5-5.2v-1c0-2.6.9-4.8 2.7-6.7 1.8-1.8 4-2.7 6.6-2.7 2.6 0 4.8.9 6.7 2.7 1.8 1.9 2.7 4.1 2.7 6.7 0 2.6-.9 4.8-2.7 6.6-1.9 1.8-4.1 2.8-6.7 2.8-2.4 0-4.6-.9-6.4-2.6l-10.5 5.3c0 .4.1.8.1 1 0 .2-.1.6-.1 1l10.5 5.3c1.8-1.7 4-2.5 6.4-2.5z" fill="#FFF"/></g></svg>