<svg xmlns="http://www.w3.org/2000/svg" width="36" height="36" viewBox="0 0 36 36" xmlns:xlink="http://www.w3.org/1999/xlink"><defs><path id="a" d="M0 0h36v36H0z"/><path id="c" d="M0 0h36v36H0z"/><path id="e" d="M0 0h36v36H0z"/><path id="g" d="M0 0h36v36H0z"/><path id="i" d="M0 0h36v36H0z"/></defs><g fill="none" fill-rule="evenodd"><mask id="b" fill="#fff"><use xlink:href="#a"/></mask><circle cx="18" cy="18" r="18" fill="#F5A622" mask="url(#b)"/><mask id="d" fill="#fff"><use xlink:href="#c"/></mask><path fill="#FFF" mask="url(#d)" d="M27.464 12.115l2.04-6.054-6.357.015 1.505 2.102-6.37 4.606-3.298-1.638L6.792 23.02h1.442l7.403-9.274 2.834 1.688 7.49-5.422"/><mask id="f" fill="#fff"><use xlink:href="#e"/></mask><path fill="#FFF" d="M6.63 26.15h2.46v1.13H6.63v-1.13zm3.03 0h.38v1.13h-.38v-1.13zm1.52 0h.76v1.13h-.76v-1.13zm1.51 3.03h-.758v-1.14h.76v1.14zm-1.89 0h-.38v-1.14h.38v1.14zm-.95 0H7.39v-1.14h2.46v1.14zm-3.6-1.14h.38v1.57c0 .21.17.33.38.33h6.06c.212 0 .38-.12.38-.33v-1.907c0-.21-.168-.422-.38-.422h-.38V25.8c0-.21-.167-.415-.378-.415h-6.06c-.212 0-.38.204-.38.415v1.905c0 .21.175.338.38.338z" mask="url(#f)"/><mask id="h" fill="#fff"><use xlink:href="#g"/></mask><path fill="#FFF" d="M24.06 26.15h2.462v1.13h-2.46v-1.13zm1.71-5.69v1.14h-2.46v-1.14h2.46zm-3.41-1.898h2.46v1.14h-2.46v-1.14zm3.03 0h.38v1.14h-.38v-1.14zm1.52 0h.758v1.14h-.76v-1.14zm1.7 3.038h-.76v-1.14h.76v1.14zm-.76 3.79v-1.14h.76v1.14h-.76zm1.52 1.89h-.76v-1.138h.76v1.14zm-.76 1.9h-.76v-1.14h.76v1.14zm-1.52-3.03h.38v1.13h-.38v-1.13zm-.75-1.9h.38v1.14h-.38v-1.14zm-.57-.76h-2.46v-1.138h2.46v1.14zm.95-1.138v1.14h-.38v-1.14h.38zm1.89 1.14h-.76v-1.14h.76v1.14zm-2.27-3.03h.38V21.6h-.38v-1.14zm-3.03 4.928v-1.14h2.46v1.14h-2.46zm3.41 3.79h-.38v-1.14h.38v1.14zm-.95 0h-2.46v-1.14h2.46v1.14zm-2.848-1.9c-.21 0-.38.212-.38.423v1.906c0 .21.17.33.38.33h6.06c.212 0 .38-.12.38-.33v-1.57h.38c.21 0 .38-.126.38-.337v-1.905c0-.21-.17-.415-.38-.415h-.38V20.08a.377.377 0 0 0-.38-.378h-.57v-1.526a.372.372 0 0 0-.378-.373h-6.06a.372.372 0 0 0-.38.373v1.905c0 .212.168.38.38.38h.568V25.8c0 .21.17.344.38.344h.38v1.14h-.38z" mask="url(#h)"/><mask id="j" fill="#fff"><use xlink:href="#i"/></mask><path fill="#FFF" d="M20.08 25.39h-.758v-1.14h.76v1.14zm.57 3.79h-.76v-1.14h.76v1.14zm-1.89 0h-.38v-1.14h.38v1.14zm-.95 0h-2.46v-1.14h2.46v1.14zm0-3.03v1.13h-2.46v-1.138h2.46v.007zm-2.46-3.798h2.46v1.14h-2.46v-1.14zm-.57 3.038v-1.14h2.46v1.14h-2.46zm3.41 0h-.38v-1.14h.38v1.14zm.57 1.89h-.38v-1.138h.38v1.14zm1.89-1.13v1.13h-.76v-1.138h.76v.007zm-2.27-3.798h.38v1.14h-.38v-1.14zm1.51 0h.76v1.14h-.76v-1.14zm1.14 1.9c.21 0 .38-.142.38-.353v-1.906c0-.21-.17-.394-.38-.394h-6.06c-.21 0-.38.183-.38.394v1.497h-.19c-.21 0-.38.19-.38.402v1.906c0 .21.17.344.38.344h.19v3.467c0 .21.17.33.38.33h6.06c.21 0 .38-.12.38-.33v-3.812c0-.21-.17-.415-.38-.415h-.19v-1.14h.19v.008z" mask="url(#j)"/></g></svg>