<svg width="74" height="72" viewBox="0 0 74 72" xmlns="http://www.w3.org/2000/svg"><g fill="none" fill-rule="evenodd"><path d="M37.183 71.233c20.08 0 36.36-15.946 36.36-35.616S57.262 0 37.182 0 .825 15.946.825 35.617c0 19.67 16.278 35.616 36.358 35.616z" fill="#F6A623"/><g fill="#FFF"><path d="M16.723 42.36c.55 0 .997-.367.997-.818v-18.69c0-.232.23-.42.51-.42h36.835c.28 0 .51.188.51.42v18.69c0 .45.445.817.996.817.55 0 .998-.367.998-.818v-18.69c0-1.133-1.122-2.054-2.503-2.054H18.23c-1.38 0-2.504.92-2.504 2.053v18.692c0 .45.446.817.997.817m43.797 1.953h-21.3c-.55 0-.997.365-.997.817v.438h-3.15v-.44c0-.45-.447-.816-.998-.816h-21.3c-.55 0-.997.365-.997.817v2.478c0 1.2 1.192 2.178 2.658 2.178H58.86c1.464 0 2.657-.977 2.657-2.178v-2.48c0-.45-.447-.816-.997-.816zm-.997 3.296c0 .3-.297.544-.664.544H14.435c-.366 0-.664-.243-.664-.544v-1.662h19.34c.173.715.944 1.256 1.866 1.256h3.34c.922 0 1.693-.54 1.864-1.256h19.34v1.662z"/><path d="M48.7 32.396c1.035 0 1.878-.69 1.878-1.54 0-.85-.844-1.54-1.882-1.54-1.035 0-1.877.69-1.877 1.54 0 .14.03.275.074.405l-5.977 5.346a2.207 2.207 0 0 0-.34-.03c-.01 0-.017.004-.026.004l-6.393-8.102a1.31 1.31 0 0 0 .18-.648c0-.85-.844-1.54-1.882-1.54-1.034 0-1.876.69-1.876 1.54l.002.02c-.013.004-.027.005-.04.01l-5.404 2.82a2.196 2.196 0 0 0-.802-.154c-1.035 0-1.877.69-1.877 1.54 0 .85.842 1.54 1.878 1.54s1.878-.69 1.878-1.54v-.01l5.396-2.816c.015-.007.022-.02.035-.027.247.097.52.157.81.157l.028-.002 6.394 8.103a1.31 1.31 0 0 0-.18.648c0 .85.843 1.54 1.88 1.54 1.034 0 1.877-.69 1.877-1.54 0-.14-.03-.275-.074-.405l5.978-5.345c.11.016.223.028.34.028"/></g></g></svg>