<svg width="47" height="48" viewBox="0 0 47 48" xmlns="http://www.w3.org/2000/svg"><path d="M23.34.941C10.51.941.11 11.321.11 24.118c0 12.8 10.401 23.174 23.23 23.174s23.227-10.374 23.227-23.174C46.567 11.32 36.17.94 23.34.94zm11.702 18.504c.012.251.017.503.017.755 0 7.72-5.889 16.619-16.657 16.619-3.305 0-6.382-.967-8.974-2.624.459.053.925.08 1.396.08 2.744 0 5.268-.933 7.272-2.499a5.86 5.86 0 0 1-5.469-4.056 5.83 5.83 0 0 0 2.644-.1c-2.679-.537-4.697-2.898-4.697-5.726l.001-.075c.789.438 1.692.7 2.652.732a5.838 5.838 0 0 1-1.812-7.799 16.633 16.633 0 0 0 12.067 6.103 5.838 5.838 0 0 1-.152-1.331c0-3.226 2.622-5.841 5.854-5.841 1.684 0 3.205.71 4.273 1.844a11.73 11.73 0 0 0 3.718-1.417 5.854 5.854 0 0 1-2.575 3.231 11.741 11.741 0 0 0 3.363-.92 11.881 11.881 0 0 1-2.921 3.024z" fill="#F5F3ED" fill-rule="evenodd"/></svg>