<svg xmlns="http://www.w3.org/2000/svg" width="41" height="41" viewBox="0 0 41 41"><g fill="none" fill-rule="evenodd"><path fill="#1AB4D7" d="M20.252 40.994c11.186 0 20.253-9.068 20.253-20.253S31.438.49 20.252.49C9.067.489 0 9.556 0 20.74c0 11.185 9.067 20.253 20.252 20.253"/><path fill="#FFF" d="M9.694 20.683l3.457-3.465a.619.619 0 0 0-.882-.87l-3.453 3.451-3.468-3.457a.62.62 0 1 0-.87.88l3.455 3.456-3.454 3.46a.617.617 0 0 0 .432 1.063c.165 0 .32-.064.437-.181l3.462-3.46 3.45 3.446a.618.618 0 1 0 .888-.862l-3.455-3.462zm20.547-.001a1.126 1.126 0 1 0 1.126-1.125c-.621 0-1.126.504-1.126 1.125z"/><path fill="#FFF" d="M28.107 20.682a3.263 3.263 0 0 1 3.259-3.259 3.263 3.263 0 0 1 3.258 3.26 3.262 3.262 0 0 1-3.258 3.257 3.262 3.262 0 0 1-3.26-3.258zm-1.282 0a4.546 4.546 0 0 0 4.54 4.54 4.547 4.547 0 0 0 4.543-4.54 4.547 4.547 0 0 0-4.542-4.54 4.546 4.546 0 0 0-4.541 4.54zm-.322-4.463h-.19c-.573 0-1.124.18-1.585.535a.62.62 0 0 0-.605-.487.612.612 0 0 0-.614.614l.002 7.648a.62.62 0 0 0 1.238-.001v-4.703c0-1.567.144-2.2 1.487-2.368.124-.015.259-.013.26-.013.367-.012.628-.265.628-.606a.62.62 0 0 0-.621-.62zm-11.89 3.716l.001-.052a3.281 3.281 0 0 1 6.371.052h-6.373zm7.64-.117c-.266-1.264-.958-2.302-2.011-2.968a4.577 4.577 0 0 0-5.06.134 4.593 4.593 0 0 0-1.914 3.73c0 .364.044.732.136 1.094a4.577 4.577 0 0 0 3.854 3.392 4.322 4.322 0 0 0 1.634-.108 4.471 4.471 0 0 0 1.357-.58c.439-.282.806-.654 1.161-1.1l.022-.024c.247-.306.2-.741-.07-.949-.229-.175-.613-.246-.915.14a4.187 4.187 0 0 1-.217.284c-.24.265-.538.522-.895.721a3.26 3.26 0 0 1-1.522.385c-1.801-.02-2.765-1.277-3.108-2.175a3.259 3.259 0 0 1-.138-.52 1.17 1.17 0 0 1-.009-.096h6.464c.886-.02 1.363-.645 1.231-1.36z"/></g></svg>