<svg width="48" height="47" viewBox="0 0 48 47" xmlns="http://www.w3.org/2000/svg"><g fill="#F5F3ED" fill-rule="evenodd"><path d="M14.294 25.26h1.682v8.337h1.625V25.26h1.682v-1.42h-4.989v1.419m9.982-6.925c.22 0 .395-.059.523-.178a.662.662 0 0 0 .196-.503v-4.319a.51.51 0 0 0-.2-.42c-.13-.108-.305-.162-.52-.162a.712.712 0 0 0-.483.162.528.528 0 0 0-.184.42v4.32c0 .217.056.384.172.502.115.12.28.178.496.178m3.582 7.978c-.224 0-.445.056-.666.17a2.251 2.251 0 0 0-.616.502v-3.143h-1.458v9.756h1.458v-.552c.187.222.395.384.616.489.218.105.47.156.754.156.426 0 .756-.134.98-.406.227-.274.34-.663.34-1.172v-3.995c0-.59-.12-1.039-.362-1.344-.24-.307-.589-.461-1.046-.461zm-.08 5.6c0 .232-.041.396-.123.497-.084.103-.213.152-.39.152a.852.852 0 0 1-.349-.077 1.202 1.202 0 0 1-.34-.253v-4.484a.985.985 0 0 1 .297-.22c.1-.05.202-.072.305-.072.195 0 .345.063.45.186.101.126.15.31.15.555v3.717zm-5.188-.043a2.012 2.012 0 0 1-.445.384c-.163.101-.3.15-.402.15-.136 0-.234-.036-.296-.114-.059-.075-.09-.198-.09-.368V26.4h-1.441v6.018c0 .43.084.747.252.965.171.214.42.32.754.32.27 0 .55-.073.838-.228a3.19 3.19 0 0 0 .83-.667v.789h1.444V26.4h-1.443v5.469"/><path d="M24.212.133C11.383.133.982 10.511.982 23.31c0 12.802 10.401 23.176 23.23 23.176s23.23-10.374 23.23-23.176c0-12.8-10.401-23.177-23.23-23.177zm3.754 11.447h1.62v6.079c0 .189.037.324.105.406.066.085.178.13.33.13.118 0 .27-.058.453-.168.181-.114.35-.256.5-.43V11.58h1.625v7.928h-1.626v-.875c-.296.322-.607.57-.933.738-.323.166-.636.253-.941.253-.377 0-.658-.12-.849-.357-.19-.233-.284-.586-.284-1.062V11.58zm-6.03 1.812c0-.611.22-1.1.655-1.469.438-.36 1.025-.544 1.763-.544.673 0 1.223.193 1.654.576.426.382.64.878.64 1.485v4.094c0 .68-.21 1.21-.629 1.596-.423.384-1 .577-1.739.577-.709 0-1.279-.199-1.704-.594-.426-.401-.64-.937-.64-1.61v-4.11zm-4.421-4.63l1.187 4.294h.115l1.13-4.294h1.857l-2.126 6.289v4.457H17.85V15.25l-2.176-6.487h1.84zm21.263 22.62a5.202 5.202 0 0 1-5.207 5.194H15.482a5.202 5.202 0 0 1-5.206-5.195v-4.176a5.2 5.2 0 0 1 5.206-5.195h18.09a5.2 5.2 0 0 1 5.206 5.195v4.176z"/><path d="M32.212 26.222c-.646 0-1.17.194-1.578.59-.409.391-.614.902-.614 1.522v3.234c0 .696.188 1.24.557 1.633.37.396.88.594 1.526.594.72 0 1.258-.186 1.618-.557.365-.375.543-.93.543-1.67V31.2h-1.482v.327c0 .425-.051.698-.144.822-.095.123-.262.185-.5.185-.232 0-.394-.071-.49-.217-.094-.149-.14-.41-.14-.79v-1.355h2.756v-1.838c0-.68-.175-1.202-.53-1.568-.354-.363-.862-.544-1.522-.544zm.57 2.83h-1.274v-.728c0-.3.046-.52.148-.644.1-.135.264-.2.495-.2.219 0 .382.065.479.2.1.125.152.343.152.644v.729z"/></g></svg>